<?xml version="1.0" standalone="no"?>
<!DOCTYPE svg PUBLIC "-//W3C//DTD SVG 1.1//EN" "http://www.w3.org/Graphics/SVG/1.1/DTD/svg11.dtd" >
<svg xmlns="http://www.w3.org/2000/svg">
<metadata></metadata>
<defs>
<font id="encode_sans_widelight" horiz-adv-x="1292" >
<font-face units-per-em="2048" ascent="1638" descent="-410" />
<missing-glyph horiz-adv-x="520" />
<glyph unicode="&#xfb01;" horiz-adv-x="1325" d="M33 977v129h268v47q0 154 21.5 250t79 153.5t156.5 81t257 29.5l8 -108q-121 -8 -194.5 -23.5t-115.5 -52.5t-56.5 -100.5t-14.5 -168.5v-108h324v-129h-324v-977h-143v977h-266zM985 1440q0 92 94 92q96 0 97 -92q-1 -92 -97 -92q-94 0 -94 92zM1008 0v1106h143v-1106 h-143z" />
<glyph unicode="&#xfb02;" horiz-adv-x="1329" d="M33 977v129h268v47q0 154 21.5 250t79 153.5t156.5 81t257 29.5l8 -108q-121 -8 -194.5 -23.5t-115.5 -52.5t-56.5 -100.5t-14.5 -168.5v-108h324v-129h-324v-977h-143v977h-266zM1008 0v1655h143v-1655h-143z" />
<glyph unicode="&#xfb03;" horiz-adv-x="2138" d="M33 977v129h268v47q0 154 21.5 250t79 153.5t156.5 81t257 29.5l8 -108q-121 -8 -194.5 -23.5t-115.5 -52.5t-56.5 -100.5t-14.5 -168.5v-108h324v-129h-324v-977h-143v977h-266zM848 977v129h268v47q0 154 21.5 250t79 153.5t157 81t256.5 29.5l8 -108 q-121 -8 -194.5 -23.5t-115.5 -52.5t-56.5 -100.5t-14.5 -168.5v-108h324v-129h-324v-977h-143v977h-266zM1798 1440q0 92 94 92q96 0 97 -92q-1 -92 -97 -92q-94 0 -94 92zM1821 0v1106h143v-1106h-143z" />
<glyph unicode="&#xfb04;" horiz-adv-x="2142" d="M33 977v129h268v47q0 154 21.5 250t79 153.5t156.5 81t257 29.5l8 -108q-121 -8 -194.5 -23.5t-115.5 -52.5t-56.5 -100.5t-14.5 -168.5v-108h324v-129h-324v-977h-143v977h-266zM848 977v129h268v47q0 154 21.5 250t79 153.5t157 81t256.5 29.5l8 -108 q-121 -8 -194.5 -23.5t-115.5 -52.5t-56.5 -100.5t-14.5 -168.5v-108h324v-129h-324v-977h-143v977h-266zM1821 0v1655h143v-1655h-143z" />
<glyph horiz-adv-x="0" />
<glyph unicode="&#xd;" horiz-adv-x="595" />
<glyph horiz-adv-x="0" />
<glyph horiz-adv-x="0" />
<glyph unicode=" "  horiz-adv-x="520" />
<glyph unicode="&#x09;" horiz-adv-x="520" />
<glyph unicode="&#xa0;" horiz-adv-x="520" />
<glyph unicode="!" horiz-adv-x="522" d="M178 92q0 88 90 88q41 0 65.5 -23.5t24.5 -64.5t-24.5 -63.5t-65.5 -22.5q-43 0 -66.5 22.5t-23.5 63.5zM190 1495v21h142v-21l-25 -1118v-27h-92v27z" />
<glyph unicode="&#x22;" horiz-adv-x="786" d="M154 983v672h133v-8l-60 -664h-73zM526 983v672h133v-8l-59 -664h-74z" />
<glyph unicode="#" horiz-adv-x="1196" d="M113 473v109h196l29 350h-225v110h235l39 474h113l-39 -474h301l39 474h112l-39 -474h207v-110h-215l-28 -350h243v-109h-254l-36 -473h-115l39 473h-301l-37 -473h-115l39 473h-188zM424 582h299l29 350h-299z" />
<glyph unicode="$" horiz-adv-x="1228" d="M102 39v129q131 -31 258 -48.5t226 -17.5q197 0 302 72t105 205q0 82 -31.5 135t-85 88t-124 57.5t-146.5 40.5q-131 33 -221 73t-146.5 92.5t-82 120t-25.5 157.5q0 162 111.5 268.5t304.5 130.5v281h147v-273q80 -4 173.5 -16t197.5 -35v-129q-98 27 -203.5 41 t-193.5 14q-178 0 -281.5 -75.5t-103.5 -204.5q0 -61 19.5 -108.5t63.5 -84.5t115.5 -67.5t177.5 -57.5q98 -25 186.5 -54.5t155 -78.5t105.5 -122.5t39 -184.5q0 -174 -109.5 -277.5t-320.5 -125.5v-291h-146v284q-100 2 -224 18.5t-243 43.5z" />
<glyph unicode="%" horiz-adv-x="2017" d="M92 1053q0 242 94.5 362.5t278.5 120.5t278.5 -121t94.5 -362q0 -242 -94.5 -364t-278.5 -122t-278.5 122t-94.5 364zM211 1053q0 -377 254 -377t254 377t-254 377t-254 -377zM559 0l764 1516h137l-764 -1516h-137zM1182 465q0 242 94 362.5t276 120.5t277.5 -120.5 t95.5 -362.5t-95.5 -363.5t-277.5 -121.5t-276 121.5t-94 363.5zM1298 465q0 -379 254 -379q256 0 256 379q0 377 -256 377q-254 0 -254 -377z" />
<glyph unicode="&#x26;" horiz-adv-x="1554" d="M117 422q0 285 284 399q-59 72 -83.5 149t-24.5 171q0 199 125 300t360 101q86 0 179.5 -17.5t207.5 -56.5v-12l-30 -94h-15q-98 35 -179 52.5t-153 17.5q-350 0 -350 -297q0 -76 25.5 -142.5t84 -129t151 -126t225.5 -133.5l280 -149q27 104 27 245v150h135v-148 q0 -174 -41 -309l182 -96v-14l-61 -95h-19l-153 82q-158 -293 -580 -293q-135 0 -242.5 31t-181 88.5t-113.5 139t-40 186.5zM264 426q0 -156 116 -247t320 -91q338 0 461 244l-313 170q-119 63 -207 120.5t-152 110.5q-117 -47 -171 -122.5t-54 -184.5z" />
<glyph unicode="'" horiz-adv-x="411" d="M154 983v672h133v-8l-60 -664h-73z" />
<glyph unicode="(" horiz-adv-x="608" d="M104 725q0 287 82 556t240 497h133v-9q-160 -223 -245 -489t-85 -555q0 -291 85 -556t245 -488v-9h-133q-158 227 -240 496.5t-82 556.5z" />
<glyph unicode=")" horiz-adv-x="606" d="M47 -319q160 223 245 488t85 556q0 289 -85 555t-245 489v9h133q158 -227 240 -496.5t82 -556.5t-82 -556t-240 -497h-133v9z" />
<glyph unicode="*" horiz-adv-x="1026" d="M106 1360l31 96l162 -51l193 -92l-29 215v166h102v-166l-30 -215l192 92l162 51l31 -96l-160 -49l-211 -39l147 -156l101 -137l-82 -57l-99 135l-104 194l-102 -194l-99 -135l-80 57l99 137l145 156l-209 39z" />
<glyph unicode="+" horiz-adv-x="999" d="M106 705v106h340v352h107v-352h340v-106h-340v-353h-107v353h-340z" />
<glyph unicode="," horiz-adv-x="475" d="M80 -297l94 479h152l-133 -499z" />
<glyph unicode="-" horiz-adv-x="995" d="M152 510v127h692v-127h-692z" />
<glyph unicode="." horiz-adv-x="483" d="M143 90q0 47 27 71.5t72 24.5q47 0 73.5 -24.5t26.5 -71.5t-26.5 -71.5t-73.5 -24.5q-45 0 -72 24.5t-27 71.5z" />
<glyph unicode="/" horiz-adv-x="831" d="M70 -246l561 1762h131l-561 -1762h-131z" />
<glyph unicode="0" horiz-adv-x="1409" d="M125 756q0 387 147.5 583.5t432.5 196.5t432 -196.5t147 -583.5t-147 -583t-432 -196t-432.5 196t-147.5 583zM268 756q1 -654 437 -654t436 654q0 653 -436 653t-437 -653z" />
<glyph unicode="1" horiz-adv-x="845" d="M55 1243v8l463 265h111v-1516h-144v1343h-8l-391 -190h-14z" />
<glyph unicode="2" horiz-adv-x="1171" d="M106 4v197q0 96 28 173t85 142.5t143.5 123.5t200.5 120q88 45 151.5 88t104.5 86t59.5 89t18.5 99q0 281 -336 281q-90 0 -188.5 -14.5t-200.5 -40.5l-20 131q125 29 227 41t201 12q463 0 462 -402q0 -78 -22.5 -140t-69.5 -117.5t-120.5 -106.5t-176.5 -107 q-102 -55 -177 -105t-123 -100.5t-71.5 -104.5t-23.5 -118v-102h793v-125h-945z" />
<glyph unicode="3" horiz-adv-x="1120" d="M125 8v121h8q25 -6 62.5 -11t78.5 -9.5t81 -6.5t71 -2q211 0 316.5 84t105.5 244q0 141 -92 211t-289 70h-166v118h164q342 0 342 289q0 297 -369 297q-53 0 -133 -8t-172 -21h-8v119q70 16 158 24.5t168 8.5q248 0 377.5 -106.5t129.5 -309.5q0 -129 -61 -217t-178 -123 v-10q135 -29 207.5 -121t72.5 -233q0 -215 -141.5 -327t-415.5 -112q-78 0 -162.5 8.5t-154.5 22.5z" />
<glyph unicode="4" horiz-adv-x="1280" d="M55 453v12l510 1071h8l127 -25l5 -16l-486 -995v-8h604l43 516h97v-516h251v-123h-251v-369h-142v369h-729z" />
<glyph unicode="5" horiz-adv-x="1142" d="M117 8v121h24q78 -14 151 -21.5t142 -7.5q229 0 342 77t113 269q0 84 -33 141.5t-99.5 93.5t-169 52.5t-243.5 18.5l-170 4l-16 16l57 744h758v-123h-643l-35 -514q193 -2 333 -25t231 -73t135 -133t44 -206q0 -127 -41 -216t-117.5 -144t-186 -80t-244.5 -25 q-78 0 -164 8.5t-168 22.5z" />
<glyph unicode="6" horiz-adv-x="1312" d="M123 668q0 207 47 368.5t139 273t225.5 170t305.5 58.5q127 0 276 -33l-10 -121q-78 20 -138.5 28.5t-125.5 8.5q-258 0 -404.5 -172t-167.5 -489q94 78 209 121t238 43q113 0 205 -30t158.5 -87t103.5 -139t37 -189q0 -113 -38 -205t-107.5 -158.5t-168 -102.5 t-219.5 -36q-281 0 -423 172.5t-142 518.5zM268 649q4 -287 106.5 -422t313.5 -135q176 0 278.5 104.5t102.5 284.5q0 160 -99.5 247t-281.5 87q-104 0 -219 -45t-201 -121z" />
<glyph unicode="7" horiz-adv-x="1056" d="M55 1503l6 13h916l33 -76v-51l-580 -1391l-39 -25l-121 27v27l586 1357h-788z" />
<glyph unicode="8" horiz-adv-x="1310" d="M119 393q0 92 27.5 161t69.5 118t91 79.5t92 49.5q-49 25 -91 55.5t-72.5 72.5t-48 97t-17.5 127q0 96 37 168t102.5 120t155.5 71.5t197 23.5q104 0 192 -23.5t150.5 -70.5t97.5 -120t35 -171q0 -84 -23.5 -146.5t-60.5 -109.5t-81 -79t-85 -52q63 -23 119.5 -54.5 t98.5 -75.5t66.5 -102.5t24.5 -138.5q0 -199 -142.5 -301t-398.5 -102q-258 0 -397 97t-139 306zM258 403q0 -156 108.5 -227.5t288.5 -71.5q178 0 289 73t111 212q0 80 -34 132t-90.5 87t-128 58.5t-147.5 46.5l-66.5 19t-64.5 20q-27 -10 -71.5 -32t-87.5 -63t-75 -103 t-32 -151zM305 1147q0 -80 35 -134.5t92 -90t131 -60t152 -45.5l45 -12q27 12 68.5 36.5t80.5 65.5t67 98.5t28 137.5q0 72 -27 125t-73 87t-109.5 50t-139.5 16t-139 -16t-110.5 -50t-74 -86t-26.5 -122z" />
<glyph unicode="9" horiz-adv-x="1314" d="M94 1036q0 113 38 205t107.5 158.5t168 102.5t219.5 36q281 0 423 -172t142 -518q0 -207 -47 -369t-139.5 -273.5t-225.5 -170t-305 -58.5q-127 0 -276 33l10 121q78 -20 138.5 -28.5t125.5 -8.5q258 0 404.5 172t166.5 490q-94 -78 -208.5 -121t-237.5 -43 q-113 0 -205 29.5t-158.5 86t-103.5 139.5t-37 189zM246 1034q0 -160 99.5 -247t281.5 -87q104 0 219 45.5t201 120.5q-4 287 -106.5 422t-313.5 135q-176 0 -278.5 -104.5t-102.5 -284.5z" />
<glyph unicode=":" horiz-adv-x="495" d="M150 90q0 47 26.5 71.5t71.5 24.5q47 0 73.5 -24.5t26.5 -71.5t-26.5 -71.5t-73.5 -24.5q-45 0 -71.5 24.5t-26.5 71.5zM150 1016q0 47 26.5 71.5t71.5 24.5q47 0 73.5 -24.5t26.5 -71.5t-26.5 -71.5t-73.5 -24.5q-45 0 -71.5 24.5t-26.5 71.5z" />
<glyph unicode=";" horiz-adv-x="561" d="M131 -297l94 479h152l-133 -499zM193 1016q0 47 26.5 71.5t71.5 24.5q47 0 73.5 -24.5t26.5 -71.5t-26.5 -71.5t-73.5 -24.5q-45 0 -71.5 24.5t-26.5 71.5z" />
<glyph unicode="&#x3c;" horiz-adv-x="1050" d="M102 700v101l793 352v-121l-645 -282l641 -283v-119z" />
<glyph unicode="=" horiz-adv-x="1089" d="M158 457v110h774v-110h-774zM158 895v109h774v-109h-774z" />
<glyph unicode="&#x3e;" horiz-adv-x="1052" d="M158 1032v121l794 -352v-101l-788 -352v119l639 283z" />
<glyph unicode="?" horiz-adv-x="940" d="M70 1481q78 25 169 41t187 16q82 0 160 -20.5t138 -67.5t97 -124t37 -189q0 -109 -39 -183.5t-100.5 -125t-136 -81t-144.5 -49.5v-350h-112v39l-9 391q63 16 136 40t132.5 63t99.5 98t40 147q0 84 -27.5 139.5t-72.5 89.5t-102.5 48t-114.5 14q-82 0 -160 -14t-154 -35z M297 86q0 88 88 88q41 0 65.5 -23.5t24.5 -64.5t-24.5 -63.5t-65.5 -22.5q-88 0 -88 86z" />
<glyph unicode="@" horiz-adv-x="1886" d="M115 532q0 197 59 354.5t170 267.5t269.5 168t359.5 58q184 0 329.5 -51t246 -147.5t153.5 -237.5t53 -319q0 -250 -97 -383t-280 -133q-117 0 -171 53t-62 131h-12q-29 -37 -69 -70t-86 -55.5t-96.5 -35.5t-99.5 -13q-135 0 -211.5 92t-76.5 262q0 117 37.5 215 t107.5 169t167 111t216 40q66 0 142.5 -16.5t162.5 -45.5l-82 -434q-8 -45 -14 -82t-6 -68q0 -82 37.5 -118.5t119.5 -36.5q127 0 196 107.5t69 310.5q0 317 -173.5 484t-500.5 167q-174 0 -313.5 -51t-236.5 -147.5t-149.5 -233.5t-52.5 -312q0 -166 47 -296t136.5 -221 t218.5 -139t290 -48q186 0 420 68l37 -101q-129 -35 -244 -53t-213 -18q-184 0 -332.5 56t-252 160.5t-158.5 254t-55 337.5zM598 473q0 -123 51.5 -190.5t147.5 -67.5q61 0 119.5 23.5t105.5 66.5t80 100.5t45 124.5l63 353q-55 16 -102 24t-84 8q-92 0 -171 -32.5 t-135 -92t-88 -140.5t-32 -177z" />
<glyph unicode="A" horiz-adv-x="1447" d="M18 0v12l592 1504h228l592 -1504v-12h-148l-184 469h-750l-184 -469h-146zM395 598h658l-217 549l-105 266h-14l-105 -266z" />
<glyph unicode="B" horiz-adv-x="1406" d="M203 10v1495q150 14 260 21.5t211 7.5q154 0 262 -22.5t177 -71.5t100.5 -126t31.5 -186q0 -137 -72.5 -233t-195.5 -121v-8q158 -31 238.5 -124t80.5 -247q0 -415 -606 -415q-111 0 -228.5 7t-258.5 23zM344 117q109 -21 340 -21q242 0 354.5 75t112.5 232 q0 309 -414 310h-393v-596zM344 823h385q201 0 287 70t86 229q0 80 -22.5 136.5t-74 91t-131 50t-196.5 15.5q-109 0 -188.5 -3t-145.5 -13v-576z" />
<glyph unicode="C" horiz-adv-x="1263" d="M117 754q0 387 175 584.5t515 197.5q76 0 177 -12.5t194 -30.5v-127q-229 41 -361 41q-274 0 -413.5 -164t-139.5 -487q0 -322 133 -483.5t402 -161.5q37 0 88 4t104 11t102.5 15.5t84.5 16.5v-125q-39 -10 -88.5 -19.5t-101.5 -15.5t-101 -10t-88 -4q-338 0 -510 194.5 t-172 575.5z" />
<glyph unicode="D" horiz-adv-x="1566" d="M203 16v1497q45 4 103.5 7.5t118.5 6.5t115.5 5t94.5 2q420 0 616.5 -187.5t196.5 -588.5q0 -201 -49 -347.5t-151.5 -241.5t-259.5 -141t-374 -46q-139 0 -251.5 9t-159.5 25zM346 129q90 -12 155.5 -17.5t149.5 -5.5q338 0 493.5 157t155.5 495q0 336 -156.5 491.5 t-494.5 155.5q-29 0 -67.5 -1t-79.5 -3t-82 -5t-74 -5v-1262z" />
<glyph unicode="E" horiz-adv-x="1314" d="M203 0v1516h979v-123h-836v-559h793v-125h-793v-586h854v-123h-997z" />
<glyph unicode="F" horiz-adv-x="1257" d="M203 0v1516h979v-123h-836v-572h760v-123h-760v-698h-143z" />
<glyph unicode="G" horiz-adv-x="1404" d="M117 754q0 385 184 583.5t543 198.5q193 0 401 -55v-129q-68 16 -121 26.5t-99 16.5t-87 9t-86 3q-293 0 -440.5 -164t-147.5 -487q0 -322 140.5 -483.5t418.5 -161.5q57 0 143.5 9t155.5 23v627h138v-715q-49 -16 -106.5 -29.5t-116 -22.5t-114 -14t-100.5 -5 q-348 0 -527 194.5t-179 575.5z" />
<glyph unicode="H" horiz-adv-x="1640" d="M203 0v1516h143v-676h948v676h144v-1516h-144v717h-948v-717h-143z" />
<glyph unicode="I" horiz-adv-x="548" d="M203 0v1516h143v-1516h-143z" />
<glyph unicode="J" horiz-adv-x="546" d="M45 -328q45 94 77 177t50 166t26.5 170t8.5 192v1139h143v-1145q0 -102 -9 -189.5t-32.5 -173.5t-62.5 -178t-96 -209z" />
<glyph unicode="K" horiz-adv-x="1404" d="M203 0v1516h143v-680h352l486 680h168l-490 -678l-61 -52v-12l67 -51l518 -723h-167l-506 711h-367v-711h-143z" />
<glyph unicode="L" horiz-adv-x="1140" d="M203 0v1516h143v-1393h764v-123h-907z" />
<glyph unicode="M" horiz-adv-x="1961" d="M203 0v1516h200l416 -932l154 -371h12l158 371l413 932h203v-1516h-135v1335h-12l-211 -504l-352 -774h-136l-352 774l-213 504h-12v-1335h-133z" />
<glyph unicode="N" horiz-adv-x="1665" d="M203 0v1516h125l860 -1115l131 -184h12v1299h133v-1516h-127l-866 1120l-125 174h-10v-1294h-133z" />
<glyph unicode="O" horiz-adv-x="1597" d="M117 756q0 381 179 580.5t503 199.5q160 0 286.5 -51t213.5 -149.5t133.5 -244t46.5 -335.5q0 -379 -179 -577.5t-501 -198.5q-324 0 -503 197.5t-179 578.5zM264 756q0 -319 136.5 -484.5t398.5 -165.5q260 0 396 166t136 484q0 322 -136 487.5t-396 165.5 q-262 0 -398.5 -165t-136.5 -488z" />
<glyph unicode="P" horiz-adv-x="1372" d="M203 0v1505q197 31 377 31q371 0 541.5 -125t170.5 -397q0 -270 -167 -395t-525 -125q-53 0 -114.5 3t-139.5 11v-508h-143zM346 639q16 -4 47 -8t68 -7t77.5 -5.5t75.5 -2.5q143 0 245 21.5t165 70t92 123t29 183.5q0 106 -31 182t-96.5 124t-169 70.5t-248.5 22.5 q-66 0 -136.5 -5t-117.5 -13v-756z" />
<glyph unicode="Q" horiz-adv-x="1589" d="M111 756q0 184 46 329.5t133 246t214 152.5t289 52t288.5 -52t214.5 -152.5t133.5 -246t45.5 -329.5q0 -362 -175 -556q-171 -188 -474 -188h-19v-10q98 -23 180 -39t157 -27.5t147.5 -18.5t152.5 -13l-23 -133q-375 55 -626.5 130.5t-404 190.5t-216 276.5t-63.5 387.5z M258 756q0 -315 138.5 -482.5t396.5 -167.5q260 0 397 168t137 482q0 319 -136 486t-398 167q-260 0 -397.5 -168t-137.5 -485z" />
<glyph unicode="R" horiz-adv-x="1417" d="M203 0v1505q98 16 192 23.5t185 7.5q373 0 542.5 -114.5t169.5 -366.5q0 -184 -86 -293t-272 -156l412 -606h-166l-385 584q-45 -4 -93.5 -7.5t-101.5 -3.5t-117.5 4.5t-136.5 12.5v-590h-143zM346 717q29 -8 106.5 -15.5t161.5 -7.5q143 0 245 19.5t165 62.5t92 111.5 t29 167.5q0 188 -128 273t-417 85q-66 0 -136.5 -5t-117.5 -13v-678z" />
<glyph unicode="S" horiz-adv-x="1228" d="M98 39v129q131 -31 258 -48.5t226 -17.5q197 0 302 72t105 205q0 82 -31.5 135t-85 88t-124 57.5t-146.5 40.5q-131 33 -221 73t-146.5 92.5t-82 120t-25.5 157.5q0 92 37 166.5t106.5 129t165.5 83t217 28.5q86 0 188.5 -13t219.5 -38v-129q-98 27 -203.5 41t-193.5 14 q-178 0 -281.5 -75.5t-103.5 -204.5q0 -61 19 -108.5t63.5 -84.5t116 -67.5t177.5 -57.5q98 -25 186.5 -54.5t155 -78.5t105.5 -122.5t39 -184.5q0 -199 -142.5 -304.5t-414.5 -105.5q-102 0 -231.5 16.5t-254.5 45.5z" />
<glyph unicode="T" d="M35 1393v123h1222v-123h-538v-1393h-146v1393h-538z" />
<glyph unicode="U" horiz-adv-x="1603" d="M186 616v900h144v-893q0 -141 29.5 -239.5t90 -160t148.5 -89.5t205 -28t205 28t147 89.5t89 159.5t30 240v893h145v-900q0 -170 -36.5 -290.5t-111.5 -197.5t-191.5 -112.5t-276.5 -35.5t-276.5 35.5t-192.5 112.5t-112 197.5t-36 290.5z" />
<glyph unicode="V" horiz-adv-x="1437" d="M23 1516h155l420 -1076l115 -297h12l115 297l422 1076h153l-596 -1516h-198z" />
<glyph unicode="W" horiz-adv-x="2134" d="M47 1516h152l301 -1061l82 -301h12l84 301l313 1061h152l311 -1061l86 -301h12l82 301l303 1061h152l-440 -1516h-199l-309 1049l-68 264h-10l-68 -266l-309 -1047h-199z" />
<glyph unicode="X" horiz-adv-x="1415" d="M14 0l598 784l-563 732h170l455 -598l26 -46h17l24 46l457 598h168l-567 -742l604 -774h-170l-496 645l-22 41h-17l-22 -41l-490 -645h-172z" />
<glyph unicode="Y" horiz-adv-x="1318" d="M14 1516h158l414 -730l65 -133h15l65 133l414 730h158l-570 -1000v-516h-145v514z" />
<glyph unicode="Z" horiz-adv-x="1239" d="M72 0v109l884 1269v11h-856v127h1041v-105l-883 -1274v-10h905v-127h-1091z" />
<glyph unicode="[" horiz-adv-x="659" d="M197 -328v2106h389v-111h-269v-1884h269v-111h-389z" />
<glyph unicode="\" horiz-adv-x="829" d="M70 1516h129l561 -1762h-129z" />
<glyph unicode="]" horiz-adv-x="657" d="M74 -217h266v1884h-266v111h387v-2106h-387v111z" />
<glyph unicode="^" horiz-adv-x="1026" d="M104 985l349 631h120l349 -631h-113l-291 510h-8l-291 -510h-115z" />
<glyph unicode="_" horiz-adv-x="1243" d="M123 -121h1001v-127h-1001v127z" />
<glyph unicode="`" horiz-adv-x="526" d="M88 1655h164l145 -369l-112 -20z" />
<glyph unicode="a" horiz-adv-x="1120" d="M94 272q0 160 101.5 244t330.5 102l289 23v86q0 78 -14.5 130t-49 84t-92 45t-145.5 13q-78 0 -158 -8t-184 -28l-12 114q115 23 202 31t179 8q215 0 316 -88t101 -274v-754h-116l-19 141h-10q-234 -151 -420 -151q-299 0 -299 282zM238 281q0 -175 198 -175 q170 0 379 136v305l-250 -23q-92 -8 -154.5 -25.5t-101.5 -46t-55 -70.5t-16 -101z" />
<glyph unicode="b" horiz-adv-x="1286" d="M170 16v1639h143v-678q68 72 161 110.5t216 38.5q236 0 362 -137t126 -432q0 -150 -40 -258.5t-114 -180t-176 -106.5t-225 -35q-102 0 -216 9.5t-237 29.5zM313 115q57 -8 136.5 -15.5t171.5 -7.5q199 0 305 106.5t106 352.5t-90 349.5t-278 103.5q-68 0 -130.5 -17.5 t-111.5 -49.5t-79 -77t-30 -100v-645z" />
<glyph unicode="c" horiz-adv-x="1011" d="M109 551q0 573 542 573q61 0 135 -8t129 -20v-127q-117 28 -239 28h-8q-414 0 -414 -444q0 -233 97.5 -338.5t312.5 -105.5q72 0 129 5t122 19v-123q-47 -12 -119.5 -20t-144.5 -8q-543 0 -542 569z" />
<glyph unicode="d" horiz-adv-x="1286" d="M109 549q0 150 40.5 258t113.5 179t175.5 105.5t225.5 34.5q92 0 170.5 -9t138.5 -13v551h143v-1655h-125l-12 143h-12q-61 -80 -153.5 -121.5t-215.5 -41.5q-238 0 -363.5 137t-125.5 432zM256 553q0 -246 89.5 -350.5t277.5 -104.5q68 0 131 18.5t112 53.5t78 84 t29 111v622q-57 8 -138 15.5t-173 7.5q-197 0 -301.5 -105.5t-104.5 -351.5z" />
<glyph unicode="e" horiz-adv-x="1155" d="M111 537q0 287 130 437t377 150q213 0 322 -126t109 -369q0 -86 -11 -133h-786q10 -205 107.5 -299.5t295.5 -94.5q82 0 169 14.5t180 43.5l10 -113q-86 -31 -187.5 -48t-191.5 -17q-260 0 -392 139t-132 416zM252 602h661q-6 219 -74.5 313.5t-222.5 94.5 q-344 0 -364 -408z" />
<glyph unicode="f" horiz-adv-x="798" d="M35 977v129h268v47q0 154 21.5 250t79 153.5t156.5 81t257 29.5l8 -108q-121 -8 -194.5 -23.5t-115.5 -52.5t-56.5 -100.5t-14.5 -168.5v-108h324v-129h-324v-977h-143v977h-266z" />
<glyph unicode="g" horiz-adv-x="1286" d="M109 553q0 147 40.5 256t113.5 179.5t175.5 104t225.5 33.5q100 0 221 -12t231 -41v-977q0 -168 -46 -273.5t-123 -165.5t-177.5 -83t-206.5 -23q-98 0 -198.5 12.5t-180.5 35.5l11 118q78 -20 171 -34.5t185 -14.5t171 19.5t135 68.5t89 130t33 204v72h-10 q-125 -168 -371 -168q-238 0 -363.5 134t-125.5 425zM256 559q0 -121 21.5 -206t66.5 -138t115 -77.5t164 -24.5q70 0 133 18.5t111 53t77 84.5t29 112v606q-57 8 -138 15.5t-173 7.5q-199 0 -302.5 -104.5t-103.5 -346.5z" />
<glyph unicode="h" d="M172 0v1655h141v-682q92 41 165 69.5t133.5 47t112.5 27.5t101 9q145 0 225 -74.5t80 -230.5v-821h-145v768q0 129 -51 182.5t-156 53.5q-90 0 -208.5 -37t-256.5 -101v-866h-141z" />
<glyph unicode="i" horiz-adv-x="493" d="M152 1440q0 92 94 92q96 0 96 -92t-96 -92q-94 0 -94 92zM174 0v1106h143v-1106h-143z" />
<glyph unicode="j" horiz-adv-x="487" d="M27 -410q39 74 66.5 147t46 152.5t26.5 170t8 196.5v66.5v148.5v191.5v195.5t-1 160.5t-1 87.5h143v-924q-10 -348 -184 -633zM141 1440q0 92 95 92q96 0 96 -92t-96 -92q-94 0 -95 92z" />
<glyph unicode="k" horiz-adv-x="1167" d="M172 0v1655h141v-1034h230l420 485h165l-448 -518l-37 -17v-8l39 -20l479 -543h-166l-456 516h-226v-516h-141z" />
<glyph unicode="l" horiz-adv-x="497" d="M178 0v1655h144v-1655h-144z" />
<glyph unicode="m" horiz-adv-x="1904" d="M172 0v1106h117l12 -131h10q74 41 131.5 69.5t106.5 47t93 26.5t87 8q102 0 172 -39.5t105 -117.5h8q76 45 136 74.5t110.5 48t93.5 26.5t84 8q145 0 224 -74.5t79 -230.5v-821h-144v766q0 127 -52 181t-156 54q-70 0 -159 -34.5t-200 -96.5v-870h-143v766 q0 127 -51.5 181t-155.5 54q-74 0 -167 -37.5t-198 -97.5v-866h-143z" />
<glyph unicode="n" d="M172 0v1106h117l12 -131h10q94 41 168 69.5t134.5 47t112.5 26.5t101 8q143 0 223 -74.5t80 -230.5v-821h-145v768q0 129 -51 182.5t-156 53.5q-90 0 -208.5 -37t-254.5 -101v-866h-143z" />
<glyph unicode="o" horiz-adv-x="1257" d="M106 553q0 279 135.5 426t387.5 147t386 -147.5t134 -425.5q0 -279 -134 -426t-386 -147t-387.5 147t-135.5 426zM256 553q0 -231 90 -342t283 -111t282.5 111t89.5 342t-90 341t-282 110q-193 0 -283 -110t-90 -341z" />
<glyph unicode="p" horiz-adv-x="1290" d="M172 -451v1557h123l14 -135h13q124 155 365 155h3q236 0 363 -137t127 -432q0 -150 -41 -258.5t-114 -179t-175 -105t-225 -34.5q-92 0 -171 8t-139 12v-451h-143zM315 119q57 -8 138.5 -15.5t173.5 -7.5q197 0 301 105.5t104 351.5t-89 350.5t-277 104.5 q-70 0 -133.5 -18.5t-111.5 -52.5t-77 -82t-29 -107v-629z" />
<glyph unicode="q" horiz-adv-x="1286" d="M109 549q0 281 144 429t411 148q57 0 120.5 -3t124 -9t114.5 -13t93 -14v-1538h-137v596q-66 -84 -163 -124.5t-218 -40.5q-489 0 -489 569zM256 553q0 -240 85 -347.5t282 -107.5q76 0 139 20.5t110.5 57.5t74 86t26.5 107v618q-88 10 -165 16.5t-146 6.5 q-207 0 -306.5 -111t-99.5 -346z" />
<glyph unicode="r" horiz-adv-x="819" d="M172 0v1106h117l12 -156h8q147 72 247.5 118t186.5 56h50v-135h-48q-94 -10 -203.5 -53t-226.5 -98v-838h-143z" />
<glyph unicode="s" horiz-adv-x="997" d="M102 27v120q106 -25 199.5 -39t179.5 -14q137 0 209 51.5t72 147.5q0 55 -20.5 92t-56.5 60.5t-83 37t-102 23.5q-66 12 -134.5 28.5t-124 49t-90 90t-34.5 151.5q0 145 110.5 226.5t302.5 81.5q35 0 67 -2.5t68.5 -7.5t84 -13t110.5 -20l-8 -123q-109 23 -180.5 35 t-132.5 12q-279 0 -279 -187q0 -55 22.5 -90t61.5 -57.5t92 -34.5t113 -24q70 -12 134.5 -33t112.5 -56.5t76.5 -91t28.5 -141.5q0 -152 -108.5 -237t-307.5 -85q-72 0 -157.5 11.5t-225.5 38.5z" />
<glyph unicode="t" horiz-adv-x="833" d="M35 977v129h256l22 264l115 14v-278h354v-129h-354v-658q0 -217 207 -217q76 0 164 27v-121q-51 -12 -103.5 -19t-99.5 -7q-154 0 -232.5 77.5t-78.5 229.5v688h-250z" />
<glyph unicode="u" d="M164 285v821h143v-770q0 -123 44 -177.5t145 -54.5q57 0 117.5 13.5t120 35t120.5 47t123 52.5v854h145v-1106h-118l-13 143h-8q-96 -43 -167 -74.5t-130 -51t-116.5 -28.5t-127.5 -9q-139 0 -208.5 77.5t-69.5 227.5z" />
<glyph unicode="v" horiz-adv-x="1165" d="M49 1081v25h146l327 -836l51 -161h19l51 161l332 836h143v-25l-438 -1081h-197z" />
<glyph unicode="w" horiz-adv-x="1681" d="M55 1092v14h142l227 -795l43 -170h10l45 170l242 795h145l254 -795l49 -170h11l41 170l213 795h141v-14l-311 -1092h-166l-256 782l-41 162h-13l-40 -162l-240 -782h-168z" />
<glyph unicode="x" horiz-adv-x="1157" d="M33 0v27l448 546l-424 517v16h154l283 -346l81 -107h11l82 107l276 346h156v-16l-424 -521l448 -542v-27h-149l-299 365l-94 124h-11l-92 -124l-297 -365h-149z" />
<glyph unicode="y" horiz-adv-x="1191" d="M43 1085v21h154l338 -795l53 -149h12l53 149l355 795h149v-21l-694 -1536l-127 25l-2 20l186 416z" />
<glyph unicode="z" horiz-adv-x="1032" d="M84 2v98l651 873v10h-633v123h830v-88l-651 -881v-12h671v-123h-868z" />
<glyph unicode="{" horiz-adv-x="755" d="M82 662v131q72 0 115 54t43 165v506q0 141 49 200.5t172 59.5q18 0 51 -1t66.5 -3t61.5 -3.5t38 -3.5v-100h-221q-49 0 -70.5 -20.5t-21.5 -65.5v-602q0 -96 -42 -168t-120 -86q78 -10 120 -81t42 -167v-608q0 -45 21.5 -65.5t70.5 -20.5h221v-100q-10 -2 -37 -4.5 t-59.5 -3.5t-65.5 -2t-51 -1q-123 0 -174 59.5t-51 200.5v512q0 111 -43 164.5t-115 53.5z" />
<glyph unicode="|" horiz-adv-x="528" d="M197 -451v2106h137v-2106h-137z" />
<glyph unicode="}" horiz-adv-x="755" d="M78 -217h223q49 0 70.5 20.5t21.5 65.5v608q0 96 42 167t120 81q-78 14 -120 86t-42 168v602q0 45 -21.5 65.5t-70.5 20.5h-223v100q8 2 36.5 3.5t62.5 3.5t66.5 3t51.5 1q123 0 173 -59.5t50 -200.5v-506q0 -111 42 -165t114 -54v-131q-72 0 -114 -53.5t-42 -164.5v-512 q0 -141 -51 -200.5t-174 -59.5q-18 0 -51 1t-67 2t-61.5 3.5t-35.5 4.5v100z" />
<glyph unicode="~" horiz-adv-x="1384" d="M147 594q55 53 99.5 88t84.5 56.5t80 30.5t87 9q63 0 113.5 -23.5t95.5 -53t90 -53t98 -23.5q74 0 145.5 37.5t106.5 95.5l92 -51q-27 -39 -62.5 -76t-79.5 -65.5t-92.5 -46t-99.5 -17.5q-72 0 -126 24.5t-99 53t-86 53t-86 24.5q-70 0 -133.5 -31.5t-149.5 -109.5z" />
<glyph unicode="&#xa1;" horiz-adv-x="493" d="M162 1014q0 41 23.5 63.5t66.5 22.5q41 0 65.5 -22.5t24.5 -63.5t-24.5 -64.5t-65.5 -23.5q-90 0 -90 88zM174 -389l25 1118v27h92v-27l24 -1118v-21h-141v21z" />
<glyph unicode="&#xa2;" horiz-adv-x="1056" d="M111 551q0 528 462 569v232h109v-228q59 -2 122.5 -10t113.5 -18v-127q-121 29 -248 28q-414 0 -414 -444q0 -233 97.5 -338.5t312.5 -105.5q72 0 129 5t123 19v-123q-41 -10 -105.5 -18t-130.5 -10v-228h-109v232q-463 37 -462 565z" />
<glyph unicode="&#xa3;" horiz-adv-x="1357" d="M113 0v131h342v561h-342v123h342v258q0 229 104.5 341t341.5 112q74 0 158 -13.5t188 -44.5l-20 -122q-92 27 -172 39t-144 12q-172 0 -241.5 -75t-69.5 -249v-258h467v-123h-467v-561h619v-131h-1106z" />
<glyph unicode="&#xa4;" horiz-adv-x="1314" d="M135 317l113 109l106 80q-88 98 -88 252q0 152 86 250l-104 82l-113 108l80 82l111 -115l80 -108q102 74 249 73q147 0 248 -75l86 110l109 115l82 -82l-115 -108l-109 -82q41 -47 64.5 -110.5t23.5 -139.5q0 -78 -23.5 -140.5t-64.5 -109.5l109 -82l115 -109l-82 -81 l-109 114l-84 109q-100 -76 -248 -76q-152 0 -249 74l-82 -107l-111 -114zM375 758q0 -133 76.5 -206t205.5 -73q127 0 204 72t77 207q0 125 -72.5 200.5t-208.5 75.5q-129 0 -205.5 -72.5t-76.5 -203.5z" />
<glyph unicode="&#xa5;" horiz-adv-x="1425" d="M78 1516h158l413 -730l66 -133h14l66 133l413 730h158l-518 -908h332v-102h-383v-187h383v-102h-383v-217h-146v217h-458v102h458v187h-458v102h403z" />
<glyph unicode="&#xa6;" horiz-adv-x="532" d="M199 416h137v-867h-137v867zM199 788v867h137v-867h-137z" />
<glyph unicode="&#xa7;" horiz-adv-x="1058" d="M131 27v114q211 -51 379 -51q139 0 210 52.5t71 150.5q0 55 -20.5 92t-56.5 60.5t-83 38t-101 24.5q-68 12 -135 27.5t-122.5 48t-90.5 90t-35 151.5q0 66 25 119t68 92q-41 35 -67 86.5t-26 128.5q0 145 110 226.5t304 81.5q33 0 64.5 -2.5t69.5 -7.5t84 -12t112 -19 l-10 -119q-109 23 -180.5 33t-133.5 10q-279 0 -278 -189q0 -55 22.5 -90t61.5 -57.5t92 -34.5t113 -24q72 -14 136 -34t112 -55.5t77 -91t29 -141.5q0 -131 -86 -217q41 -35 63.5 -85t22.5 -124q0 -152 -108.5 -237t-307.5 -85q-74 0 -159 11.5t-226 38.5zM289 834 q0 -57 22.5 -94.5t59.5 -61t86 -37.5t102 -27q41 -10 87 -22.5t81 -30.5q63 57 64 150q0 59 -20.5 99t-54.5 64.5t-79 40t-96 25.5q-41 8 -90.5 18.5t-83.5 26.5q-78 -53 -78 -151z" />
<glyph unicode="&#xa8;" horiz-adv-x="1011" d="M141 1450q0 90 92 90q43 0 68 -21.5t25 -68.5t-25 -69.5t-68 -22.5q-92 0 -92 92zM655 1450q0 90 90 90q43 0 68 -21.5t25 -68.5t-25 -69.5t-68 -22.5q-90 0 -90 92z" />
<glyph unicode="&#xa9;" horiz-adv-x="1757" d="M117 758q0 174 54 318.5t154.5 246.5t241 158.5t312.5 56.5t311 -56.5t239.5 -158.5t154.5 -246.5t54 -318.5q0 -176 -54 -319.5t-154.5 -246t-239.5 -159t-311 -56.5t-312.5 56.5t-241 159t-154.5 246t-54 319.5zM215 758q0 -156 47 -282t133 -216t209 -139t275 -49 q150 0 272.5 49t209.5 139t134 216t47 282t-47 281.5t-134 216t-210 139.5t-272 49q-152 0 -275 -49t-209 -139.5t-133 -216.5t-47 -281zM532 750q0 213 101.5 318.5t275.5 105.5q47 0 90 -5.5t84 -15.5v-96q-41 8 -81.5 13t-81.5 5q-133 0 -206 -80t-73 -245 q0 -164 75 -242t202 -78q39 0 81.5 6t87.5 15v-95q-84 -22 -178 -22q-174 0 -275.5 103.5t-101.5 312.5z" />
<glyph unicode="&#xaa;" horiz-adv-x="935" d="M104 928q0 100 87.5 161.5t252.5 75.5l213 17v67q0 94 -48 131t-175 37q-37 0 -92 -4t-143 -16l-17 104q92 14 161 20.5t120 6.5q174 0 246.5 -60.5t72.5 -193.5v-553h-108l-12 96h-9q-90 -53 -160.5 -78.5t-138.5 -25.5q-111 0 -180.5 59t-69.5 156zM236 938 q0 -59 37.5 -91t109.5 -32q53 0 115.5 18.5t158.5 61.5v195l-112 -7q-88 -4 -147.5 -14t-95.5 -27.5t-51 -43t-15 -60.5z" />
<glyph unicode="&#xab;" horiz-adv-x="1306" d="M74 549v8l426 487h155l-426 -487v-8l426 -488h-155zM618 549v8l426 487h156l-426 -487v-8l426 -488h-156z" />
<glyph unicode="&#xac;" horiz-adv-x="1708" d="M147 745v127h1395v-636h-141v509h-1254z" />
<glyph unicode="&#xad;" horiz-adv-x="995" d="M152 510v127h692v-127h-692z" />
<glyph unicode="&#xae;" horiz-adv-x="1509" d="M127 913q0 135 47 251t130 200t197.5 131t252.5 47q137 0 252.5 -47t199.5 -131t131 -199.5t47 -251.5q0 -137 -47 -251.5t-131 -198.5t-199.5 -131t-252.5 -47t-252 47t-198 131t-130 198.5t-47 251.5zM215 913q0 -119 40 -218t111.5 -171.5t170 -112.5t217.5 -40 t218 40t172 112.5t112.5 172t39.5 217.5q0 119 -39.5 218.5t-112.5 171t-172.5 112.5t-217.5 41q-119 0 -217.5 -41t-170 -112.5t-111.5 -171t-40 -218.5zM524 575v695q55 6 103.5 10t89.5 4q162 0 238.5 -53t76.5 -168q0 -78 -40 -130t-111 -75l-2 -6l178 -277h-101 l-165 263h-179v-263h-88zM612 918q18 -2 50 -2.5t61 -0.5q219 0 219 146q0 76 -50 110.5t-167 34.5q-23 0 -51.5 -2t-61.5 -6v-280z" />
<glyph unicode="&#xaf;" horiz-adv-x="1019" d="M143 1333v113h674v-113h-674z" />
<glyph unicode="&#xb0;" horiz-adv-x="991" d="M102 1149q0 78 31 146.5t84 118.5t125 79t154 29t153.5 -29t123.5 -79t83 -118.5t31 -146.5t-31 -146.5t-83 -120t-123.5 -80t-153.5 -28.5t-154 28.5t-125 80t-84 120t-31 146.5zM213 1149q0 -59 21.5 -109.5t58.5 -87.5t89.5 -57.5t113.5 -20.5t112 20.5t89 57.5 t59.5 87.5t21.5 109.5q0 57 -21.5 107.5t-59.5 87t-89 58t-112 21.5t-113.5 -21.5t-89.5 -58t-58.5 -87t-21.5 -107.5z" />
<glyph unicode="&#xb1;" horiz-adv-x="1112" d="M166 201v108h780v-108h-780zM166 825v107h336v350h106v-350h336v-107h-336v-348h-106v348h-336z" />
<glyph unicode="&#xb2;" horiz-adv-x="913" d="M92 618v154q0 68 18.5 123t59.5 105.5t106.5 96.5t157.5 93q70 35 117 64.5t74.5 59t40 59.5t12.5 65q0 188 -240 188q-119 0 -295 -39l-18 115q96 23 176 33t152 10q354 0 354 -301q0 -55 -16.5 -100.5t-51 -86t-92 -79.5t-139.5 -82q-74 -39 -124 -73t-81 -69.5 t-44 -72.5t-13 -82v-68h567v-113h-721z" />
<glyph unicode="&#xb3;" horiz-adv-x="870" d="M104 623v114h15q20 -4 48 -7t58.5 -6t59 -5t51.5 -2q154 0 229.5 57t75.5 168q0 188 -274 188h-131v101h129q246 0 245 199q0 100 -64.5 151t-199.5 51q-37 0 -97.5 -6t-129.5 -16h-15v112q53 12 122 19.5t130 7.5q188 0 287.5 -81t99.5 -234q0 -88 -39.5 -151.5 t-111.5 -92.5q86 -29 132 -96.5t46 -167.5q0 -160 -105.5 -244t-306.5 -84q-63 0 -129.5 7t-124.5 18z" />
<glyph unicode="&#xb4;" horiz-adv-x="507" d="M106 1262l148 376h147l-194 -391z" />
<glyph unicode="&#xb5;" horiz-adv-x="1351" d="M193 -451v1557h141v-797q0 -111 46 -161t138 -50q117 0 231.5 42t256.5 104v862h143v-1106h-117l-12 143h-8q-100 -43 -171 -73.5t-131.5 -51t-115.5 -29.5t-125 -9q-80 0 -135 24v-455h-141z" />
<glyph unicode="&#xb6;" horiz-adv-x="1269" d="M88 1034q0 137 37 231.5t106.5 152t168 83t218.5 25.5q53 0 102.5 -5t108.5 -16v-1505h-92v545q-27 -2 -59.5 -2h-54.5q-123 0 -221.5 25.5t-168 83t-107.5 151.5t-38 231zM950 0v1505h105v-1505h-105z" />
<glyph unicode="&#xb7;" horiz-adv-x="495" d="M145 758q0 100 103 100q47 0 73.5 -23.5t26.5 -76.5t-26.5 -76t-73.5 -23q-49 0 -76 23t-27 76z" />
<glyph unicode="&#xb8;" horiz-adv-x="661" d="M80 -322q74 -20 147 -20q92 0 130 30.5t38 104.5q0 25 -5 48.5t-16.5 51t-30.5 61.5t-48 81h117q31 -53 51 -89t31.5 -63.5t15.5 -50t4 -47.5q0 -113 -65.5 -174.5t-184.5 -61.5q-41 0 -89 7.5t-95 17.5v104z" />
<glyph unicode="&#xb9;" horiz-adv-x="675" d="M53 1522v18l353 193h94v-1119h-129v971l-285 -135h-18z" />
<glyph unicode="&#xba;" horiz-adv-x="1007" d="M113 1118q0 209 104.5 310.5t286.5 101.5t287.5 -101.5t105.5 -310.5t-105.5 -310t-287.5 -101t-286.5 101t-104.5 310zM238 1118q0 -88 20.5 -146.5t56 -94t84 -50t105.5 -14.5t105 14.5t83 50t55.5 94t20.5 146.5t-20.5 146.5t-55.5 94.5t-83 50t-105 14t-105.5 -14 t-84 -50t-56 -94.5t-20.5 -146.5z" />
<glyph unicode="&#xbb;" horiz-adv-x="1306" d="M106 61l426 488v8l-426 487h156l426 -487v-8l-426 -488h-156zM651 61l426 488v8l-426 487h156l426 -487v-8l-426 -488h-156z" />
<glyph unicode="&#xbc;" horiz-adv-x="2048" d="M63 1317v18l353 193h94v-1118h-129v970l-285 -135h-18zM455 0l766 1516h137l-764 -1516h-139zM1104 348l385 785h16l99 -19l6 -24l-359 -713h422l31 377h92v-377h184v-111h-184v-266h-129v266h-530z" />
<glyph unicode="&#xbd;" horiz-adv-x="2119" d="M63 1317v18l353 193h94v-1118h-129v970l-285 -135h-18zM455 0l766 1516h137l-764 -1516h-139zM1284 4v154q0 68 18.5 123t59.5 105t106.5 96t157.5 93q70 35 117 65t74.5 59.5t40 59t12.5 64.5q0 188 -240 189q-121 0 -295 -39l-18 114q94 23 174 33t154 10 q354 0 354 -301q0 -55 -16.5 -100t-51.5 -86t-92 -80t-139 -82q-74 -39 -124 -73.5t-81 -69.5t-44 -72t-13 -82v-67h567v-113h-721z" />
<glyph unicode="&#xbe;" horiz-adv-x="2211" d="M131 418v114h14q20 -4 48 -7t59 -6t59.5 -5t50.5 -2q154 0 230 57.5t76 167.5q0 188 -275 189h-131v100h129q246 0 246 199q0 100 -64.5 151t-199.5 51q-37 0 -97.5 -6t-130.5 -16h-14v113q53 12 122 19t130 7q188 0 287.5 -81t99.5 -234q0 -88 -40 -151.5t-112 -92.5 q86 -29 132.5 -96.5t46.5 -167.5q0 -160 -105.5 -244t-306.5 -84q-63 0 -130 7.5t-124 17.5zM616 0l766 1516h138l-764 -1516h-140zM1268 348l385 785h16l98 -19l7 -24l-359 -713h422l31 377h92v-377h184v-111h-184v-266h-129v266h-531z" />
<glyph unicode="&#xbf;" horiz-adv-x="927" d="M78 -20q0 109 39 183.5t100.5 124.5t135 80.5t145.5 49.5v350h112v-39l8 -391q-66 -16 -137 -40t-130.5 -62.5t-99.5 -98t-40 -147.5q0 -84 27.5 -139.5t72.5 -89t102.5 -48t114.5 -14.5q82 0 160 14.5t154 34.5l24 -113q-78 -25 -169 -41t-187 -16q-82 0 -160 20.5 t-138 67.5t-97 124t-37 190zM461 1030q0 41 24.5 63.5t65.5 22.5q88 0 88 -86q0 -88 -88 -88q-41 0 -65.5 23.5t-24.5 64.5z" />
<glyph unicode="&#xc0;" horiz-adv-x="1447" d="M18 0v12l592 1504h228l592 -1504v-12h-148l-184 469h-750l-184 -469h-146zM395 598h658l-217 549l-105 266h-14l-105 -266zM475 1933h152l155 -258l-114 -26z" />
<glyph unicode="&#xc1;" horiz-adv-x="1447" d="M18 0v12l592 1504h228l592 -1504v-12h-148l-184 469h-750l-184 -469h-146zM395 598h658l-217 549l-105 266h-14l-105 -266zM655 1661l156 272h152l-193 -284z" />
<glyph unicode="&#xc2;" horiz-adv-x="1447" d="M18 0v12l592 1504h228l592 -1504v-12h-148l-184 469h-750l-184 -469h-146zM385 1669v125l342 152l342 -152v-125l-342 152zM395 598h658l-217 549l-105 266h-14l-105 -266z" />
<glyph unicode="&#xc3;" horiz-adv-x="1447" d="M18 0v12l592 1504h228l592 -1504v-12h-148l-184 469h-750l-184 -469h-146zM317 1776q61 68 128 100.5t133 32.5q51 0 95 -13.5t86 -30t85 -29.5t90 -13q102 0 201 78l49 -56q-57 -66 -129 -99.5t-146 -33.5q-45 0 -89 13.5t-87 28.5t-86 28.5t-86 13.5q-49 0 -96 -17.5 t-98 -58.5zM395 598h658l-217 549l-105 266h-14l-105 -266z" />
<glyph unicode="&#xc4;" horiz-adv-x="1447" d="M18 0v12l592 1504h228l592 -1504v-12h-148l-184 469h-750l-184 -469h-146zM342 1794q0 98 100 98q47 0 75 -23.5t28 -74.5q0 -53 -28 -76.5t-75 -23.5q-100 0 -100 100zM395 598h658l-217 549l-105 266h-14l-105 -266zM907 1794q0 98 101 98q47 0 74.5 -23.5t27.5 -74.5 q0 -53 -27.5 -76.5t-74.5 -23.5q-100 0 -101 100z" />
<glyph unicode="&#xc5;" horiz-adv-x="1447" d="M18 0v12l592 1504h228l592 -1504v-12h-148l-184 469h-750l-184 -469h-146zM395 598h658l-217 549l-105 266h-14l-105 -266zM473 1862q0 47 19.5 88t54.5 70.5t81 47t101 17.5q109 0 180.5 -63.5t71.5 -159.5t-71.5 -159t-180.5 -63q-55 0 -101 16.5t-81 46.5t-54.5 71 t-19.5 88zM563 1862q0 -66 43 -102t123 -36q78 0 120 36t42 102t-42 102.5t-120 36.5q-80 0 -123 -37t-43 -102z" />
<glyph unicode="&#xc6;" horiz-adv-x="1845" d="M18 0v14l656 1502h1044v-123h-717l27 -564h631v-122h-625l29 -584h678v-123h-823l-21 469h-532l-205 -469h-142zM422 598h471l-33 799h-86z" />
<glyph unicode="&#xc7;" horiz-adv-x="1263" d="M117 754q0 387 175 584.5t515 197.5q76 0 177 -12.5t194 -30.5v-127q-229 41 -361 41q-274 0 -413.5 -164t-139.5 -487q0 -322 133 -483.5t402 -161.5q37 0 88 4t104 11t102.5 15.5t84.5 16.5v-125q-35 -10 -79 -18.5t-90 -14.5t-91.5 -10t-83.5 -6q43 -76 57 -116 t14 -83q0 -113 -65.5 -174.5t-184.5 -61.5q-41 0 -89 7.5t-95 17.5v104q74 -20 147 -20q92 0 130 30.5t38 104.5q0 45 -15 86t-56 109q-297 23 -447.5 216t-150.5 550z" />
<glyph unicode="&#xc8;" horiz-adv-x="1314" d="M203 0v1516h979v-123h-836v-559h793v-125h-793v-586h854v-123h-997zM467 1933h151l156 -258l-115 -26z" />
<glyph unicode="&#xc9;" horiz-adv-x="1314" d="M203 0v1516h979v-123h-836v-559h793v-125h-793v-586h854v-123h-997zM625 1661l155 272h152l-193 -284z" />
<glyph unicode="&#xca;" horiz-adv-x="1314" d="M203 0v1516h979v-123h-836v-559h793v-125h-793v-586h854v-123h-997zM365 1669v125l342 152l342 -152v-125l-342 152z" />
<glyph unicode="&#xcb;" horiz-adv-x="1314" d="M203 0v1516h979v-123h-836v-559h793v-125h-793v-586h854v-123h-997zM317 1794q0 98 101 98q47 0 74.5 -23.5t27.5 -74.5q0 -53 -27.5 -76.5t-74.5 -23.5q-100 0 -101 100zM883 1794q0 98 100 98q47 0 74.5 -23.5t27.5 -74.5q0 -53 -27.5 -76.5t-74.5 -23.5 q-100 0 -100 100z" />
<glyph unicode="&#xcc;" horiz-adv-x="548" d="M41 1933h152l155 -258l-115 -26zM203 0v1516h143v-1516h-143z" />
<glyph unicode="&#xcd;" horiz-adv-x="548" d="M203 0v1516h143v-1516h-143zM205 1661l155 272h152l-193 -284z" />
<glyph unicode="&#xce;" horiz-adv-x="548" d="M-66 1669v125l342 152l342 -152v-125l-342 152zM203 0v1516h143v-1516h-143z" />
<glyph unicode="&#xcf;" horiz-adv-x="548" d="M-106 1794q0 98 100 98q47 0 74.5 -23.5t27.5 -74.5q0 -53 -27.5 -76.5t-74.5 -23.5q-100 0 -100 100zM203 0v1516h143v-1516h-143zM459 1794q0 98 100 98q47 0 75 -23.5t28 -74.5q0 -53 -28 -76.5t-75 -23.5q-100 0 -100 100z" />
<glyph unicode="&#xd0;" horiz-adv-x="1583" d="M12 694v123h207v696q45 4 103.5 7.5t119 6.5t115.5 5t94 2q420 0 616.5 -187.5t196.5 -588.5q0 -201 -49 -347.5t-151.5 -241.5t-259 -141t-373.5 -46q-139 0 -252 9t-160 25v678h-207zM362 129q90 -12 156 -17.5t150 -5.5q338 0 493.5 157t155.5 495q0 336 -156.5 491.5 t-494.5 155.5q-29 0 -68 -1t-80 -3t-82 -5t-74 -5v-574h433v-123h-433v-565z" />
<glyph unicode="&#xd1;" horiz-adv-x="1665" d="M203 0v1516h125l860 -1115l131 -184h12v1299h133v-1516h-127l-866 1120l-125 174h-10v-1294h-133zM422 1776q61 68 127.5 100.5t132.5 32.5q51 0 95 -13.5t86 -30t85 -29.5t90 -13q102 0 201 78l49 -56q-57 -66 -129 -99.5t-145 -33.5q-45 0 -89 13.5t-87 28.5t-86 28.5 t-86 13.5q-49 0 -96.5 -17.5t-98.5 -58.5z" />
<glyph unicode="&#xd2;" horiz-adv-x="1597" d="M117 756q0 381 179 580.5t503 199.5q160 0 286.5 -51t213.5 -149.5t133.5 -244t46.5 -335.5q0 -379 -179 -577.5t-501 -198.5q-324 0 -503 197.5t-179 578.5zM264 756q0 -319 136.5 -484.5t398.5 -165.5q260 0 396 166t136 484q0 322 -136 487.5t-396 165.5 q-262 0 -398.5 -165t-136.5 -488zM549 1933h151l156 -258l-115 -26z" />
<glyph unicode="&#xd3;" horiz-adv-x="1597" d="M117 756q0 381 179 580.5t503 199.5q160 0 286.5 -51t213.5 -149.5t133.5 -244t46.5 -335.5q0 -379 -179 -577.5t-501 -198.5q-324 0 -503 197.5t-179 578.5zM264 756q0 -319 136.5 -484.5t398.5 -165.5q260 0 396 166t136 484q0 322 -136 487.5t-396 165.5 q-262 0 -398.5 -165t-136.5 -488zM727 1661l156 272h151l-192 -284z" />
<glyph unicode="&#xd4;" horiz-adv-x="1597" d="M117 756q0 381 179 580.5t503 199.5q160 0 286.5 -51t213.5 -149.5t133.5 -244t46.5 -335.5q0 -379 -179 -577.5t-501 -198.5q-324 0 -503 197.5t-179 578.5zM264 756q0 -319 136.5 -484.5t398.5 -165.5q260 0 396 166t136 484q0 322 -136 487.5t-396 165.5 q-262 0 -398.5 -165t-136.5 -488zM455 1669v125l342 152l342 -152v-125l-342 152z" />
<glyph unicode="&#xd5;" horiz-adv-x="1597" d="M117 756q0 381 179 580.5t503 199.5q160 0 286.5 -51t213.5 -149.5t133.5 -244t46.5 -335.5q0 -379 -179 -577.5t-501 -198.5q-324 0 -503 197.5t-179 578.5zM264 756q0 -319 136.5 -484.5t398.5 -165.5q260 0 396 166t136 484q0 322 -136 487.5t-396 165.5 q-262 0 -398.5 -165t-136.5 -488zM389 1776q61 68 128 100.5t132 32.5q51 0 95 -13.5t86 -30t85 -29.5t91 -13q102 0 200 78l49 -56q-57 -66 -128.5 -99.5t-145.5 -33.5q-45 0 -89 13.5t-87 28.5t-86 28.5t-86 13.5q-49 0 -96.5 -17.5t-98.5 -58.5z" />
<glyph unicode="&#xd6;" horiz-adv-x="1597" d="M117 756q0 381 179 580.5t503 199.5q160 0 286.5 -51t213.5 -149.5t133.5 -244t46.5 -335.5q0 -379 -179 -577.5t-501 -198.5q-324 0 -503 197.5t-179 578.5zM264 756q0 -319 136.5 -484.5t398.5 -165.5q260 0 396 166t136 484q0 322 -136 487.5t-396 165.5 q-262 0 -398.5 -165t-136.5 -488zM410 1794q0 98 100 98q47 0 74.5 -23.5t27.5 -74.5q0 -53 -27.5 -76.5t-74.5 -23.5q-100 0 -100 100zM975 1794q0 98 100 98q47 0 75 -23.5t28 -74.5q0 -53 -28 -76.5t-75 -23.5q-100 0 -100 100z" />
<glyph unicode="&#xd7;" horiz-adv-x="972" d="M137 485l273 273l-273 274l76 76l272 -274l275 274l76 -76l-275 -274l275 -273l-76 -73l-275 270l-272 -270z" />
<glyph unicode="&#xd8;" horiz-adv-x="1595" d="M104 0l170 205q-78 98 -117.5 235.5t-39.5 315.5q0 381 179 580.5t503 199.5q274 0 446 -150l107 130h133l-168 -203q78 -98 120 -237.5t42 -319.5q0 -379 -179.5 -577.5t-500.5 -198.5q-281 0 -455 149l-106 -129h-134zM264 756q0 -274 103 -437l792 961 q-135 129 -360 129q-262 0 -398.5 -164.5t-136.5 -488.5zM434 238q132 -132 365 -132q260 0 397 166t137 484q0 281 -108 444z" />
<glyph unicode="&#xd9;" horiz-adv-x="1603" d="M186 616v900h144v-893q0 -141 29.5 -239.5t90 -160t148.5 -89.5t205 -28t205 28t147 89.5t89 159.5t30 240v893h145v-900q0 -170 -36.5 -290.5t-111.5 -197.5t-191.5 -112.5t-276.5 -35.5t-276.5 35.5t-192.5 112.5t-112 197.5t-36 290.5zM553 1933h152l155 -258 l-115 -26z" />
<glyph unicode="&#xda;" horiz-adv-x="1603" d="M186 616v900h144v-893q0 -141 29.5 -239.5t90 -160t148.5 -89.5t205 -28t205 28t147 89.5t89 159.5t30 240v893h145v-900q0 -170 -36.5 -290.5t-111.5 -197.5t-191.5 -112.5t-276.5 -35.5t-276.5 35.5t-192.5 112.5t-112 197.5t-36 290.5zM719 1661l155 272h152 l-192 -284z" />
<glyph unicode="&#xdb;" horiz-adv-x="1603" d="M186 616v900h144v-893q0 -141 29.5 -239.5t90 -160t148.5 -89.5t205 -28t205 28t147 89.5t89 159.5t30 240v893h145v-900q0 -170 -36.5 -290.5t-111.5 -197.5t-191.5 -112.5t-276.5 -35.5t-276.5 35.5t-192.5 112.5t-112 197.5t-36 290.5zM455 1669v125l342 152l342 -152 v-125l-342 152z" />
<glyph unicode="&#xdc;" horiz-adv-x="1603" d="M186 616v900h144v-893q0 -141 29.5 -239.5t90 -160t148.5 -89.5t205 -28t205 28t147 89.5t89 159.5t30 240v893h145v-900q0 -170 -36.5 -290.5t-111.5 -197.5t-191.5 -112.5t-276.5 -35.5t-276.5 35.5t-192.5 112.5t-112 197.5t-36 290.5zM412 1794q0 98 100 98 q47 0 74.5 -23.5t27.5 -74.5q0 -53 -27.5 -76.5t-74.5 -23.5q-100 0 -100 100zM977 1794q0 98 100 98q47 0 75 -23.5t28 -74.5q0 -53 -28 -76.5t-75 -23.5q-100 0 -100 100z" />
<glyph unicode="&#xdd;" horiz-adv-x="1318" d="M14 1516h158l414 -730l65 -133h15l65 133l414 730h158l-570 -1000v-516h-145v514zM590 1661l155 272h152l-192 -284z" />
<glyph unicode="&#xde;" horiz-adv-x="1380" d="M203 0v1518h143v-256q123 12 240 12q369 0 537.5 -123t168.5 -391q0 -135 -40 -232.5t-124 -159t-214 -91t-312 -29.5q-55 0 -118.5 3t-137.5 11v-262h-143zM346 395q12 -4 43 -7t69 -6t77.5 -5t72.5 -2q150 0 252.5 20.5t166 65.5t92 118.5t28.5 180.5q0 104 -31 177 t-97.5 119t-173 67.5t-255.5 21.5q-29 0 -62.5 -1t-67.5 -3t-63.5 -5t-50.5 -8v-733z" />
<glyph unicode="&#xdf;" horiz-adv-x="1359" d="M172 0v1210q0 240 123 345.5t360 105.5q242 0 365 -107.5t123 -343.5v-194h-223q-135 0 -207 -48t-72 -141q0 -55 22.5 -90t62.5 -57.5t93 -34.5t113 -24q70 -14 134 -34t113.5 -55.5t78 -91t28.5 -141.5q0 -152 -108.5 -237t-307.5 -85q-37 0 -75.5 3.5t-83.5 9.5 t-100.5 15t-125.5 22v114q211 -51 379 -51q139 0 210 52.5t71 150.5q0 55 -20.5 92t-56.5 60.5t-83 38t-102 24.5q-66 12 -133.5 27.5t-123 48t-90 90t-34.5 151.5q0 145 109.5 226.5t301.5 81.5h86v77q0 174 -84 250t-258 76t-258 -75t-84 -251v-1210h-143z" />
<glyph unicode="&#xe0;" horiz-adv-x="1120" d="M94 272q0 160 101.5 244t330.5 102l289 23v86q0 78 -14.5 130t-49 84t-92 45t-145.5 13q-78 0 -158 -8t-184 -28l-12 114q115 23 202 31t179 8q215 0 316 -88t101 -274v-754h-116l-19 141h-10q-234 -151 -420 -151q-299 0 -299 282zM238 283q-1 -177 198 -177 q170 0 379 136v305l-250 -23q-92 -8 -154.5 -25.5t-101.5 -46t-55 -70.5t-16 -99zM305 1655h164l145 -369l-112 -20z" />
<glyph unicode="&#xe1;" horiz-adv-x="1120" d="M94 272q0 160 101.5 244t330.5 102l289 23v86q0 78 -14.5 130t-49 84t-92 45t-145.5 13q-78 0 -158 -8t-184 -28l-12 114q115 23 202 31t179 8q215 0 316 -88t101 -274v-754h-116l-19 141h-10q-234 -151 -420 -151q-299 0 -299 282zM238 283q-1 -177 198 -177 q170 0 379 136v305l-250 -23q-92 -8 -154.5 -25.5t-101.5 -46t-55 -70.5t-16 -99zM512 1262l147 376h148l-195 -391z" />
<glyph unicode="&#xe2;" horiz-adv-x="1120" d="M94 272q0 160 101.5 244t330.5 102l289 23v86q0 78 -14.5 130t-49 84t-92 45t-145.5 13q-78 0 -158 -8t-184 -28l-12 114q115 23 202 31t179 8q215 0 316 -88t101 -274v-754h-116l-19 141h-10q-234 -151 -420 -151q-299 0 -299 282zM223 1300v125l338 152l342 -152v-125 l-340 152zM238 283q-1 -177 198 -177q170 0 379 136v305l-250 -23q-92 -8 -154.5 -25.5t-101.5 -46t-55 -70.5t-16 -99z" />
<glyph unicode="&#xe3;" horiz-adv-x="1120" d="M94 272q0 160 101.5 244t330.5 102l289 23v86q0 78 -14.5 130t-49 84t-92 45t-145.5 13q-78 0 -158 -8t-184 -28l-12 114q115 23 202 31t179 8q215 0 316 -88t101 -274v-754h-116l-19 141h-10q-234 -151 -420 -151q-299 0 -299 282zM131 1401q59 70 126 102.5t132 32.5 q51 0 95 -13.5t86 -29.5t85 -29.5t90 -13.5q102 0 201 78l49 -55q-57 -66 -128.5 -101t-143.5 -35q-45 0 -89 13.5t-88 30t-87 29.5t-86 13q-49 0 -96.5 -17t-96.5 -58zM238 283q-1 -177 198 -177q170 0 379 136v305l-250 -23q-92 -8 -154.5 -25.5t-101.5 -46t-55 -70.5 t-16 -99z" />
<glyph unicode="&#xe4;" horiz-adv-x="1120" d="M94 272q0 160 101.5 244t330.5 102l289 23v86q0 78 -14.5 130t-49 84t-92 45t-145.5 13q-78 0 -158 -8t-184 -28l-12 114q115 23 202 31t179 8q215 0 316 -88t101 -274v-754h-116l-19 141h-10q-234 -151 -420 -151q-299 0 -299 282zM215 1450q0 90 92 90q43 0 67.5 -21.5 t24.5 -68.5t-24.5 -69.5t-67.5 -22.5q-92 0 -92 92zM238 283q-1 -177 198 -177q170 0 379 136v305l-250 -23q-92 -8 -154.5 -25.5t-101.5 -46t-55 -70.5t-16 -99zM729 1450q0 90 90 90q43 0 67.5 -21.5t24.5 -68.5t-24.5 -69.5t-67.5 -22.5q-90 0 -90 92z" />
<glyph unicode="&#xe5;" horiz-adv-x="1120" d="M94 272q0 160 101.5 244t330.5 102l289 23v86q0 78 -14.5 130t-49 84t-92 45t-145.5 13q-78 0 -158 -8t-184 -28l-12 114q115 23 202 31t179 8q215 0 316 -88t101 -274v-754h-116l-19 141h-10q-234 -151 -420 -151q-299 0 -299 282zM238 283q-1 -177 198 -177 q170 0 379 136v305l-250 -23q-92 -8 -154.5 -25.5t-101.5 -46t-55 -70.5t-16 -99zM305 1452q0 47 19.5 88t54.5 70.5t82 47t102 17.5q53 0 100.5 -17.5t81 -47t53 -70.5t19.5 -88t-19.5 -88t-53 -70.5t-81 -46t-100.5 -16.5q-55 0 -102 16.5t-82 46t-54.5 70.5t-19.5 88z M397 1452q0 -66 44 -101.5t122 -35.5t120 35.5t42 101.5t-42 102.5t-120 36.5t-122 -36.5t-44 -102.5z" />
<glyph unicode="&#xe6;" horiz-adv-x="1863" d="M94 272q0 160 102.5 241t329.5 101l289 25v96q0 74 -15.5 125t-50 82t-92 44t-141.5 13q-78 0 -159 -8t-185 -28l-12 114q115 23 202 31t179 8q160 0 252 -53t120 -160h11q57 104 158.5 161.5t248.5 57.5q209 0 318.5 -126t109.5 -365q0 -47 -3 -79t-7 -52h-786 q6 -205 104 -302.5t295 -97.5q84 0 171 14.5t179 43.5l10 -113q-86 -31 -188 -48t-188 -17q-156 0 -264.5 52t-168.5 150l-10 2q-88 -55 -160.5 -92t-134 -59.5t-115 -32.5t-100.5 -10q-299 0 -299 282zM240 283q-1 -181 196 -181q84 0 179.5 34t199.5 104v309l-250 -23 q-92 -8 -153.5 -25.5t-100.5 -46t-55 -70.5t-16 -101zM963 596h661q-4 221 -73.5 316.5t-221.5 95.5q-348 0 -366 -412z" />
<glyph unicode="&#xe7;" horiz-adv-x="1011" d="M109 551q0 573 542 573q61 0 135 -8t129 -20v-127q-121 29 -247 28q-414 0 -414 -444q0 -233 97.5 -338.5t312.5 -105.5q72 0 129 5t122 19v-123q-43 -10 -110.5 -18t-136.5 -10q43 -74 57 -114t14 -83q0 -113 -65.5 -174.5t-184.5 -61.5q-41 0 -89 7.5t-95 17.5v104 q74 -20 148 -20q92 0 130 30.5t38 104.5q0 45 -15.5 86t-56.5 109q-440 49 -440 563z" />
<glyph unicode="&#xe8;" horiz-adv-x="1155" d="M111 537q0 287 130 437t377 150q213 0 322 -126t109 -369q0 -86 -11 -133h-786q10 -205 107.5 -299.5t295.5 -94.5q82 0 169 14.5t180 43.5l10 -113q-86 -31 -187.5 -48t-191.5 -17q-260 0 -392 139t-132 416zM252 602h661q-6 219 -74.5 313.5t-222.5 94.5 q-344 0 -364 -408zM340 1655h164l145 -369l-112 -20z" />
<glyph unicode="&#xe9;" horiz-adv-x="1155" d="M111 537q0 287 130 437t377 150q213 0 322 -126t109 -369q0 -86 -11 -133h-786q10 -205 107.5 -299.5t295.5 -94.5q82 0 169 14.5t180 43.5l10 -113q-86 -31 -187.5 -48t-191.5 -17q-260 0 -392 139t-132 416zM252 602h661q-6 219 -74.5 313.5t-222.5 94.5 q-344 0 -364 -408zM565 1262l148 376h147l-194 -391z" />
<glyph unicode="&#xea;" horiz-adv-x="1155" d="M111 537q0 287 130 437t377 150q213 0 322 -126t109 -369q0 -86 -11 -133h-786q10 -205 107.5 -299.5t295.5 -94.5q82 0 169 14.5t180 43.5l10 -113q-86 -31 -187.5 -48t-191.5 -17q-260 0 -392 139t-132 416zM252 602h661q-6 219 -74.5 313.5t-222.5 94.5 q-344 0 -364 -408zM266 1300v125l338 152l342 -152v-125l-340 152z" />
<glyph unicode="&#xeb;" horiz-adv-x="1155" d="M111 537q0 287 130 437t377 150q213 0 322 -126t109 -369q0 -86 -11 -133h-786q10 -205 107.5 -299.5t295.5 -94.5q82 0 169 14.5t180 43.5l10 -113q-86 -31 -187.5 -48t-191.5 -17q-260 0 -392 139t-132 416zM252 602h661q-6 219 -74.5 313.5t-222.5 94.5 q-344 0 -364 -408zM254 1450q0 90 92 90q43 0 67.5 -21.5t24.5 -68.5t-24.5 -69.5t-67.5 -22.5q-92 0 -92 92zM768 1450q0 90 90 90q43 0 67.5 -21.5t24.5 -68.5t-24.5 -69.5t-67.5 -22.5q-90 0 -90 92z" />
<glyph unicode="&#xec;" horiz-adv-x="493" d="M-18 1655h163l146 -369l-113 -20zM174 0v1106h143v-1106h-143z" />
<glyph unicode="&#xed;" horiz-adv-x="493" d="M174 0v1106h143v-1106h-143zM201 1262l147 376h148l-195 -391z" />
<glyph unicode="&#xee;" horiz-adv-x="493" d="M-84 1300v125l332 152l334 -152v-125l-332 152zM174 0v1106h143v-1106h-143z" />
<glyph unicode="&#xef;" horiz-adv-x="493" d="M-92 1450q0 90 92 90q43 0 67.5 -21.5t24.5 -68.5t-24.5 -69.5t-67.5 -22.5q-92 0 -92 92zM174 0v1106h143v-1106h-143zM403 1450q0 90 93 90q41 0 66.5 -21.5t25.5 -68.5t-25.5 -69.5t-66.5 -22.5q-92 0 -93 92z" />
<glyph unicode="&#xf0;" horiz-adv-x="1288" d="M106 551q0 276 134.5 425.5t377.5 149.5q139 0 229.5 -54t149.5 -173q-37 225 -139 426l-395 -41v109l336 34q-39 59 -83 115.5t-95 112.5h159q41 -47 79 -99.5t73 -113.5l317 35v-109l-260 -29q72 -143 116 -321t44 -395q0 -313 -135 -478t-387 -165q-250 0 -385.5 147 t-135.5 424zM256 553q0 -229 90 -341t283 -112q373 0 372 500q0 84 -24.5 157.5t-72.5 128t-117.5 86.5t-159.5 32q-190 0 -280.5 -111t-90.5 -340z" />
<glyph unicode="&#xf1;" d="M172 0v1106h117l12 -131h10q94 41 168 69.5t134.5 47t112.5 26.5t101 8q143 0 223 -74.5t80 -230.5v-821h-145v768q0 129 -51 182.5t-156 53.5q-90 0 -208.5 -37t-254.5 -101v-866h-143zM225 1401q59 70 126 102.5t132 32.5q51 0 95.5 -13.5t86.5 -29.5t85 -29.5 t90 -13.5q102 0 200 78l50 -55q-57 -66 -129 -101t-144 -35q-45 0 -89 13.5t-88 30t-87 29.5t-86 13q-49 0 -96 -17t-97 -58z" />
<glyph unicode="&#xf2;" horiz-adv-x="1257" d="M106 553q0 279 135.5 426t387.5 147t386 -147.5t134 -425.5q0 -279 -134 -426t-386 -147t-387.5 147t-135.5 426zM256 553q0 -231 90 -342t283 -111t282.5 111t89.5 342t-90 341t-282 110q-193 0 -283 -110t-90 -341zM358 1655h164l146 -369l-113 -20z" />
<glyph unicode="&#xf3;" horiz-adv-x="1257" d="M106 553q0 279 135.5 426t387.5 147t386 -147.5t134 -425.5q0 -279 -134 -426t-386 -147t-387.5 147t-135.5 426zM256 553q0 -231 90 -342t283 -111t282.5 111t89.5 342t-90 341t-282 110q-193 0 -283 -110t-90 -341zM575 1262l148 376h147l-194 -391z" />
<glyph unicode="&#xf4;" horiz-adv-x="1257" d="M106 553q0 279 135.5 426t387.5 147t386 -147.5t134 -425.5q0 -279 -134 -426t-386 -147t-387.5 147t-135.5 426zM256 553q0 -231 90 -342t283 -111t282.5 111t89.5 342t-90 341t-282 110q-193 0 -283 -110t-90 -341zM287 1300v125l338 152l342 -152v-125l-340 152z" />
<glyph unicode="&#xf5;" horiz-adv-x="1257" d="M106 553q0 279 135.5 426t387.5 147t386 -147.5t134 -425.5q0 -279 -134 -426t-386 -147t-387.5 147t-135.5 426zM197 1401q59 70 125.5 102.5t132.5 32.5q51 0 95 -13.5t86 -29.5t85 -29.5t90 -13.5q102 0 201 78l49 -55q-57 -66 -129 -101t-144 -35q-45 0 -89 13.5 t-88 30t-87 29.5t-86 13q-49 0 -96 -17t-96 -58zM256 553q0 -231 90 -342t283 -111t282.5 111t89.5 342t-90 341t-282 110q-193 0 -283 -110t-90 -341z" />
<glyph unicode="&#xf6;" horiz-adv-x="1257" d="M106 553q0 279 135.5 426t387.5 147t386 -147.5t134 -425.5q0 -279 -134 -426t-386 -147t-387.5 147t-135.5 426zM256 553q0 -231 90 -342t283 -111t282.5 111t89.5 342t-90 341t-282 110q-193 0 -283 -110t-90 -341zM276 1450q0 90 93 90q43 0 67.5 -21.5t24.5 -68.5 t-24.5 -69.5t-67.5 -22.5q-92 0 -93 92zM791 1450q0 90 90 90q43 0 67.5 -21.5t24.5 -68.5t-24.5 -69.5t-67.5 -22.5q-90 0 -90 92z" />
<glyph unicode="&#xf7;" horiz-adv-x="1083" d="M150 705v106h786v-106h-786zM465 434q0 41 22.5 62.5t61.5 21.5q37 0 60.5 -21.5t23.5 -62.5t-23.5 -62.5t-60.5 -21.5q-39 0 -61.5 21.5t-22.5 62.5zM465 1067q0 41 22.5 63.5t61.5 22.5q37 0 60.5 -22.5t23.5 -63.5t-23.5 -62.5t-60.5 -21.5q-39 0 -61.5 21.5 t-22.5 62.5z" />
<glyph unicode="&#xf8;" horiz-adv-x="1269" d="M63 0l154 168q-102 145 -102 385q0 274 132 423.5t388 149.5q111 0 197 -29.5t151 -82.5l84 92h139l-153 -170q102 -143 102 -383q0 -274 -132 -423.5t-388 -149.5q-219 0 -348 112l-84 -92h-140zM262 553q0 -86 11.5 -156.5t37.5 -124.5l584 646q-90 86 -260 86 q-199 0 -286 -112t-87 -339zM373 186q92 -86 262 -86q199 0 287 113t88 340q0 176 -52 278z" />
<glyph unicode="&#xf9;" d="M164 285v821h143v-770q0 -123 44 -177.5t145 -54.5q57 0 117.5 13.5t120 35t120.5 47t123 52.5v854h145v-1106h-118l-13 143h-8q-96 -43 -167 -74.5t-130 -51t-116.5 -28.5t-127.5 -9q-139 0 -208.5 77.5t-69.5 227.5zM369 1655h163l146 -369l-113 -20z" />
<glyph unicode="&#xfa;" d="M164 285v821h143v-770q0 -123 44 -177.5t145 -54.5q57 0 117.5 13.5t120 35t120.5 47t123 52.5v854h145v-1106h-118l-13 143h-8q-96 -43 -167 -74.5t-130 -51t-116.5 -28.5t-127.5 -9q-139 0 -208.5 77.5t-69.5 227.5zM584 1262l147 376h148l-195 -391z" />
<glyph unicode="&#xfb;" d="M164 285v821h143v-770q0 -123 44 -177.5t145 -54.5q57 0 117.5 13.5t120 35t120.5 47t123 52.5v854h145v-1106h-118l-13 143h-8q-96 -43 -167 -74.5t-130 -51t-116.5 -28.5t-127.5 -9q-139 0 -208.5 77.5t-69.5 227.5zM297 1300v125l338 152l342 -152v-125l-340 152z" />
<glyph unicode="&#xfc;" d="M164 285v821h143v-770q0 -123 44 -177.5t145 -54.5q57 0 117.5 13.5t120 35t120.5 47t123 52.5v854h145v-1106h-118l-13 143h-8q-96 -43 -167 -74.5t-130 -51t-116.5 -28.5t-127.5 -9q-139 0 -208.5 77.5t-69.5 227.5zM287 1450q0 90 92 90q43 0 67.5 -21.5t24.5 -68.5 t-24.5 -69.5t-67.5 -22.5q-92 0 -92 92zM801 1450q0 90 90 90q43 0 67.5 -21.5t24.5 -68.5t-24.5 -69.5t-67.5 -22.5q-90 0 -90 92z" />
<glyph unicode="&#xfd;" horiz-adv-x="1191" d="M43 1085v21h154l338 -795l53 -149h12l53 149l355 795h149v-21l-694 -1536l-127 25l-2 20l186 416zM549 1262l147 376h148l-195 -391z" />
<glyph unicode="&#xfe;" horiz-adv-x="1286" d="M172 -451v2106h141v-682q61 70 154.5 111.5t228.5 41.5q236 0 359 -137t123 -432t-149.5 -436t-416.5 -141q-78 0 -158.5 9t-140.5 13v-453h-141zM313 119q61 -10 142 -18.5t157 -8.5q102 0 181 23.5t131.5 77t79 140.5t26.5 216t-22.5 218t-67.5 142.5t-113.5 77 t-160.5 23.5q-76 0 -140.5 -21.5t-111.5 -61.5t-74 -98.5t-27 -132.5v-577z" />
<glyph unicode="&#xff;" horiz-adv-x="1191" d="M43 1085v21h154l338 -795l53 -149h12l53 149l355 795h149v-21l-694 -1536l-127 25l-2 20l186 416zM244 1450q0 90 92 90q43 0 67.5 -21.5t24.5 -68.5t-24.5 -69.5t-67.5 -22.5q-92 0 -92 92zM758 1450q0 90 90 90q43 0 67.5 -21.5t24.5 -68.5t-24.5 -69.5t-67.5 -22.5 q-90 0 -90 92z" />
<glyph unicode="&#x152;" horiz-adv-x="2088" d="M115 756q0 190 47 335.5t135 244t216 149.5t292 51q63 0 113.5 -4t103.5 -16h930v-123h-785v-559h742v-125h-742v-586h803v-123h-948q-49 -10 -103.5 -15t-113.5 -5q-326 0 -508 198.5t-182 577.5zM262 756q0 -319 139.5 -484.5t403.5 -165.5q61 0 115.5 4.5t101.5 18.5 v1257q-49 14 -101.5 18.5t-115.5 4.5q-264 0 -403.5 -165t-139.5 -488z" />
<glyph unicode="&#x153;" horiz-adv-x="2052" d="M106 553q0 279 135.5 426t387.5 147q166 0 279.5 -71.5t162.5 -202.5h10q49 131 160 201.5t277 70.5q209 0 317.5 -126t108.5 -365q0 -43 -2.5 -76t-8.5 -55h-784q6 -205 104.5 -302.5t292.5 -97.5q168 0 352 58l11 -113q-86 -31 -188.5 -48t-188.5 -17q-178 0 -292 67.5 t-163 194.5h-8q-53 -127 -164.5 -195.5t-275.5 -68.5q-252 0 -387.5 147t-135.5 426zM256 553q0 -231 90 -342t283 -111t282.5 111t89.5 342t-90 341t-282 110q-193 0 -283 -110t-90 -341zM1147 598h663q-6 223 -75.5 317.5t-221.5 94.5q-348 0 -366 -412z" />
<glyph unicode="&#x178;" horiz-adv-x="1318" d="M14 1516h158l414 -730l65 -133h15l65 133l414 730h158l-570 -1000v-516h-145v514zM274 1794q0 98 101 98q47 0 74.5 -23.5t27.5 -74.5q0 -53 -27.5 -76.5t-74.5 -23.5q-100 0 -101 100zM840 1794q0 98 100 98q47 0 74.5 -23.5t27.5 -74.5q0 -53 -27.5 -76.5t-74.5 -23.5 q-100 0 -100 100z" />
<glyph unicode="&#x2c6;" horiz-adv-x="972" d="M143 1300v125l338 152l342 -152v-125l-340 152z" />
<glyph unicode="&#x2dc;" horiz-adv-x="1077" d="M92 1401q59 70 126 102.5t132 32.5q51 0 95 -13.5t86 -29.5t85 -29.5t91 -13.5q102 0 200 78l49 -55q-57 -66 -128.5 -101t-143.5 -35q-45 0 -89 13.5t-88 30t-87 29.5t-86 13q-49 0 -96.5 -17t-96.5 -58z" />
<glyph unicode="&#x2000;" horiz-adv-x="1042" />
<glyph unicode="&#x2001;" horiz-adv-x="2085" />
<glyph unicode="&#x2002;" horiz-adv-x="1042" />
<glyph unicode="&#x2003;" horiz-adv-x="2085" />
<glyph unicode="&#x2004;" horiz-adv-x="695" />
<glyph unicode="&#x2005;" horiz-adv-x="521" />
<glyph unicode="&#x2006;" horiz-adv-x="347" />
<glyph unicode="&#x2007;" horiz-adv-x="347" />
<glyph unicode="&#x2008;" horiz-adv-x="260" />
<glyph unicode="&#x2009;" horiz-adv-x="417" />
<glyph unicode="&#x200a;" horiz-adv-x="115" />
<glyph unicode="&#x2010;" horiz-adv-x="995" d="M152 510v127h692v-127h-692z" />
<glyph unicode="&#x2011;" horiz-adv-x="995" d="M152 510v127h692v-127h-692z" />
<glyph unicode="&#x2012;" horiz-adv-x="995" d="M152 510v127h692v-127h-692z" />
<glyph unicode="&#x2013;" horiz-adv-x="1302" d="M152 510v127h999v-127h-999z" />
<glyph unicode="&#x2014;" horiz-adv-x="1652" d="M152 510v127h1349v-127h-1349z" />
<glyph unicode="&#x2018;" horiz-adv-x="434" d="M129 1257q0 100 29.5 210t83.5 192l82 -12q-33 -78 -52.5 -175.5t-19.5 -187.5q0 -98 35 -201l-133 -16q-25 80 -25 190z" />
<glyph unicode="&#x2019;" horiz-adv-x="432" d="M117 1081q35 78 53 175.5t18 185.5q0 49 -8 98t-28 102l135 17q12 -41 18 -86t6 -105q0 -98 -29.5 -208.5t-82.5 -192.5z" />
<glyph unicode="&#x201a;" horiz-adv-x="450" d="M96 -266q35 78 53.5 175t18.5 185q0 49 -8 98.5t-29 102.5l135 16q12 -41 18.5 -86t6.5 -104q0 -98 -30 -209t-83 -193z" />
<glyph unicode="&#x201c;" horiz-adv-x="878" d="M129 1257q0 100 29.5 210t83.5 192l82 -12q-33 -78 -52.5 -175.5t-19.5 -187.5q0 -98 35 -201l-133 -16q-25 80 -25 190zM573 1257q0 100 30 210t83 192l82 -12q-33 -78 -52.5 -175.5t-19.5 -187.5q0 -98 35 -201l-133 -16q-25 80 -25 190z" />
<glyph unicode="&#x201d;" horiz-adv-x="876" d="M117 1081q35 78 53 175.5t18 185.5q0 49 -8 98t-28 102l135 17q12 -41 18 -86t6 -105q0 -98 -29.5 -208.5t-82.5 -192.5zM561 1081q35 78 53.5 175.5t18.5 185.5q0 49 -8.5 98t-28.5 102l135 17q12 -41 18.5 -86t6.5 -105q0 -98 -30 -208.5t-83 -192.5z" />
<glyph unicode="&#x201e;" horiz-adv-x="894" d="M96 -266q35 78 53.5 175t18.5 185q0 49 -8 98.5t-29 102.5l135 16q12 -41 18.5 -86t6.5 -104q0 -98 -30 -209t-83 -193zM541 -266q35 78 53 175t18 185q0 49 -8 98.5t-29 102.5l136 16q12 -41 18 -86t6 -104q0 -98 -29.5 -209t-82.5 -193z" />
<glyph unicode="&#x2022;" horiz-adv-x="688" d="M190 758q0 86 45.5 119.5t110.5 33.5q61 0 106.5 -33.5t45.5 -119.5t-45.5 -119t-106.5 -33q-66 0 -111 33t-45 119z" />
<glyph unicode="&#x2026;" horiz-adv-x="1327" d="M143 90q0 47 27 71.5t72 24.5q47 0 73.5 -24.5t26.5 -71.5t-26.5 -71.5t-73.5 -24.5q-45 0 -72 24.5t-27 71.5zM573 90q0 47 27 71.5t72 24.5q47 0 73.5 -24.5t26.5 -71.5t-26.5 -71.5t-73.5 -24.5q-45 0 -72 24.5t-27 71.5zM987 90q0 47 26.5 71.5t71.5 24.5 q47 0 74 -24.5t27 -71.5t-27 -71.5t-74 -24.5q-45 0 -71.5 24.5t-26.5 71.5z" />
<glyph unicode="&#x202f;" horiz-adv-x="417" />
<glyph unicode="&#x2039;" horiz-adv-x="759" d="M74 549v8l426 487h155l-426 -487v-8l426 -488h-155z" />
<glyph unicode="&#x203a;" horiz-adv-x="759" d="M104 61l426 488v8l-426 487h156l426 -487v-8l-426 -488h-156z" />
<glyph unicode="&#x205f;" horiz-adv-x="521" />
<glyph unicode="&#x20ac;" horiz-adv-x="1339" d="M98 535v102h187q-4 29 -4 58.5v60.5v63.5t4 59.5h-187v102h197q23 145 77 249.5t146 172t223 99.5t308 32q70 0 113.5 -4t84.5 -8l-55 -125q-16 2 -47 5t-68 3q-152 0 -263.5 -22.5t-188 -74t-121.5 -131t-64 -196.5h623l-33 -102h-600q-4 -29 -4 -58.5v-62.5v-62.5 t4 -58.5h551l-33 -102h-506q20 -113 65.5 -194t122.5 -132t185.5 -75.5t253.5 -24.5q27 0 64.5 3t80.5 7v-129q-27 -6 -63.5 -8t-89.5 -2q-352 2 -536.5 135t-229.5 420h-197z" />
<glyph unicode="&#x2122;" horiz-adv-x="1959" d="M74 1419v97h714v-97h-303v-764h-110v764h-301zM905 655v861h135l308 -697l307 697h133v-861h-102v688l-291 -655h-95l-288 655v-688h-107z" />
<glyph unicode="&#x25fc;" horiz-adv-x="1105" d="M0 0v1106h1106v-1106h-1106z" />
</font>
</defs>
</svg>
