<?xml version="1.0" encoding="utf-8"?>
<!-- Generator: Adobe Illustrator 17.0.0, SVG Export Plug-In . SVG Version: 6.00 Build 0)  -->
<!DOCTYPE svg PUBLIC "-//W3C//DTD SVG 1.1//EN" "http://www.w3.org/Graphics/SVG/1.1/DTD/svg11.dtd">
<svg version="1.1" id="Capa_1" xmlns="http://www.w3.org/2000/svg" xmlns:xlink="http://www.w3.org/1999/xlink" x="0px" y="0px"
	 width="400px" height="400px" viewBox="0 0 400 400" enable-background="new 0 0 400 400" xml:space="preserve">
<g>
	<g>
		<path fill="#4A7628" d="M241.161,184.999c0.517-0.347,1.041-0.687,1.569-1.027c1.855-1.194,3.755-2.284,5.708-3.259
			c-9.075,0.399-17.738,1.551-25.85,3.342c0,0-15.541,3.046-26.586,8.634c-4.05,2.114-7.876,4.578-11.45,7.306
			c-0.517,0.392-1.048,0.769-1.543,1.175c-0.483,0.385-0.949,0.79-1.416,1.187c0.07-0.004,0.118-0.004,0.175-0.014
			c3.827-0.3,7.656-0.642,11.472-1.031c9.661-0.972,19.298-2.12,28.961-3.03c1.627-0.161,3.262-0.292,4.896-0.434
			c0.23-0.286,0.455-0.592,0.702-0.871C231.793,192.345,236.304,188.308,241.161,184.999z"/>
		<path fill="#4A7628" d="M253.548,180.56c-0.635,0.547-7.524,6.541-12.934,16.315c0.712-0.04,1.411-0.075,2.116-0.11
			c14.453-0.776,29.105-0.798,43.339,1.614c0.304,0.049,0.621,0.111,0.916,0.163c-1.011-5.423-2.488-10.683-4.378-15.745
			c-8.479-1.476-17.506-2.266-26.844-2.266C255.014,180.532,254.282,180.548,253.548,180.56z"/>
		<path fill="#4A7628" d="M155.547,182.419c-0.104,0-0.225,0.007-0.326,0.007c-12.196-0.225-35.592,0.116-54.312,4.977
			c-0.594,1.869-1.135,3.75-1.607,5.659c-0.202,0.781-0.367,1.569-0.542,2.355c-0.38,1.671-0.708,3.349-1.009,5.05
			c2.363,0.33,4.728,0.604,7.093,0.868c24.937-17.069,51.851-18.897,51.851-18.897C156.301,182.434,155.928,182.419,155.547,182.419
			z"/>
		<path fill="#4A7628" d="M107.959,266.817c0.048-0.297,0.156-0.458,0.295-0.458c0.138,0,0.246,0.087,0.482,0.553l4.842,9.996
			l4.824-10.128c0.117-0.284,0.222-0.42,0.391-0.42c0.166,0,0.269,0.175,0.314,0.553l1.607,10.952
			c0.165,1.119,0.344,1.628,0.873,1.787c0.51,0.165,0.878,0.182,1.098,0.182c0.155,0,0.285,0.017,0.285,0.12
			c0,0.142-0.213,0.196-0.458,0.196c-0.45,0-2.884-0.054-3.601-0.104c-0.404-0.038-0.51-0.092-0.51-0.196
			c0-0.085,0.07-0.132,0.188-0.198c0.119-0.033,0.166-0.26,0.096-0.76l-1.064-7.801h-0.071l-3.872,8.047
			c-0.406,0.84-0.491,0.996-0.651,0.996c-0.165,0-0.331-0.354-0.626-0.885c-0.43-0.822-1.818-3.533-2.031-4.022
			c-0.166-0.377-1.228-2.612-1.846-3.941h-0.08l-0.92,7.059c-0.023,0.32-0.047,0.547-0.047,0.835c0,0.33,0.235,0.491,0.53,0.562
			c0.323,0.076,0.563,0.092,0.743,0.092c0.142,0,0.271,0.03,0.271,0.12c0,0.159-0.168,0.196-0.427,0.196
			c-0.743,0-1.544-0.054-1.864-0.054c-0.345,0-1.18,0.054-1.746,0.054c-0.19,0-0.334-0.037-0.334-0.196
			c0-0.09,0.121-0.12,0.284-0.12c0.15,0,0.271,0,0.542-0.054c0.494-0.108,0.638-0.795,0.721-1.399L107.959,266.817z"/>
		<path fill="#4A7628" d="M144.917,271.886c0-2.695,0-3.186-0.021-3.754c-0.036-0.602-0.191-0.89-0.773-1.017
			c-0.137-0.028-0.448-0.047-0.693-0.047c-0.194,0-0.298-0.038-0.298-0.155c0-0.132,0.119-0.163,0.392-0.163
			c0.935,0,2.054,0.052,2.552,0.052c0.564,0,4.099,0,4.43-0.021c0.344-0.031,0.629-0.064,0.764-0.103
			c0.086-0.019,0.203-0.071,0.288-0.071c0.081,0,0.105,0.071,0.105,0.163c0,0.122-0.092,0.335-0.142,1.151
			c-0.024,0.172-0.048,0.956-0.085,1.168c-0.024,0.087-0.057,0.196-0.18,0.196c-0.121,0-0.158-0.092-0.158-0.248
			c0-0.127-0.023-0.424-0.108-0.642c-0.116-0.316-0.305-0.528-1.192-0.634c-0.297-0.036-2.166-0.071-2.516-0.071
			c-0.094,0-0.117,0.052-0.117,0.177v4.482c0,0.134,0.012,0.196,0.117,0.196c0.387,0,2.434,0,2.83-0.036
			c0.439-0.026,0.701-0.082,0.865-0.267c0.121-0.137,0.188-0.228,0.279-0.228c0.075,0,0.123,0.035,0.123,0.144
			c0,0.101-0.086,0.387-0.146,1.3c-0.033,0.352-0.068,1.05-0.068,1.184c0,0.137,0,0.326-0.153,0.326
			c-0.126,0-0.161-0.069-0.161-0.149c-0.023-0.177-0.023-0.408-0.075-0.646c-0.09-0.347-0.34-0.616-0.987-0.689
			c-0.342-0.026-2.095-0.052-2.52-0.052c-0.092,0-0.104,0.076-0.104,0.175v1.408c0,0.6-0.023,2.231,0,2.745
			c0.023,1.225,0.32,1.489,2.123,1.489c0.463,0,1.207,0,1.666-0.215c0.458-0.213,0.671-0.583,0.803-1.308
			c0.037-0.201,0.062-0.269,0.189-0.269c0.146,0,0.146,0.137,0.146,0.316c0,0.409-0.146,1.619-0.242,1.969
			c-0.117,0.467-0.279,0.467-0.953,0.467c-2.673,0-3.865-0.113-4.903-0.113c-0.415,0-1.534,0.054-2.244,0.054
			c-0.225,0-0.354-0.054-0.354-0.172c0-0.095,0.078-0.144,0.281-0.144c0.276,0,0.481-0.04,0.638-0.069
			c0.356-0.07,0.452-0.467,0.523-0.981c0.08-0.741,0.08-2.143,0.08-3.769V271.886z M150.743,263.929
			c0.106,0.207,0,0.261-0.082,0.261c-0.099,0-0.25-0.035-0.618,0c-0.968,0.125-2.375,0.696-3.021,1.05
			c-0.155,0.076-0.274,0.144-0.308,0.144c-0.037,0-0.113-0.04-0.113-0.113c0-0.068,0.076-0.137,0.17-0.222
			c0.713-0.682,2.564-2.064,2.847-2.242c0.179-0.123,0.304-0.158,0.354-0.158c0.131,0,0.162,0.057,0.259,0.212
			C150.359,263.112,150.529,263.447,150.743,263.929z"/>
		<path fill="#4A7628" d="M179.668,272.742c0.566,0.862,3.438,5.666,3.875,6.24c0.305,0.385,0.566,0.606,1.023,0.741
			c0.311,0.093,0.523,0.109,0.689,0.109c0.119,0,0.223,0.03,0.223,0.144c0,0.118-0.143,0.172-0.34,0.172h-0.521
			c-0.435,0-1.83,0-3.197-0.037c-0.469-0.017-0.605-0.047-0.605-0.175c0-0.104,0.09-0.158,0.244-0.196
			c0.092-0.017,0.167-0.175,0.037-0.409c-0.97-1.739-1.979-3.49-2.797-4.826l-2.623,4.243c-0.18,0.283-0.258,0.547-0.25,0.743
			c0.016,0.158,0.179,0.271,0.344,0.3c0.109,0.024,0.262,0.04,0.402,0.04c0.107,0,0.211,0.049,0.211,0.161
			c0,0.118-0.117,0.155-0.352,0.155h-0.318c-0.108,0-1.227-0.054-1.666-0.054c-0.335,0-1.208,0.054-1.49,0.054h-0.303
			c-0.182,0-0.273-0.054-0.273-0.155c0-0.111,0.115-0.161,0.259-0.161c0.118,0,0.388-0.016,0.651-0.092
			c0.52-0.146,0.846-0.477,1.454-1.331l3.389-4.833l-3.05-5.055c-0.424-0.712-0.854-1.137-1.477-1.331
			c-0.285-0.087-0.57-0.123-0.729-0.123c-0.121,0-0.194-0.061-0.194-0.177c0-0.11,0.135-0.141,0.352-0.141
			c0.429,0,1.873,0.052,2.694,0.052c0.25,0,1.241-0.052,1.906-0.052c0.245,0,0.35,0.031,0.35,0.163c0,0.118-0.105,0.155-0.26,0.155
			c-0.113,0-0.339,0.019-0.481,0.071c-0.153,0.052-0.212,0.177-0.212,0.283c0,0.108,0.068,0.318,0.179,0.514
			c0.763,1.418,1.559,2.709,2.256,3.922c0.508-0.788,2.148-3.247,2.408-3.743c0.141-0.25,0.199-0.538,0.199-0.677
			c0-0.123-0.135-0.267-0.309-0.323c-0.174-0.047-0.439-0.047-0.561-0.047c-0.109,0-0.228-0.038-0.228-0.155
			c0-0.111,0.128-0.163,0.372-0.163c0.689,0,1.445,0.052,1.775,0.052c0.354,0,1.088-0.052,1.734-0.052
			c0.201,0,0.318,0.052,0.318,0.163c0,0.094-0.105,0.155-0.283,0.155c-0.17,0-0.387,0.036-0.627,0.104
			c-0.414,0.113-0.763,0.604-1.299,1.387L179.668,272.742z"/>
		<path fill="#4A7628" d="M207.024,271.886c0-2.695,0-3.186-0.034-3.754c-0.037-0.602-0.212-0.906-0.602-0.993
			c-0.19-0.052-0.427-0.071-0.637-0.071c-0.18,0-0.286-0.038-0.286-0.177c0-0.11,0.139-0.141,0.421-0.141
			c0.674,0,1.8,0.052,2.303,0.052c0.453,0,1.491-0.052,2.166-0.052c0.238,0,0.373,0.031,0.373,0.141c0,0.14-0.103,0.177-0.278,0.177
			s-0.316,0.019-0.533,0.047c-0.486,0.094-0.613,0.396-0.661,1.017c-0.032,0.569-0.032,1.06-0.032,3.754v3.126
			c0,1.716,0,3.118,0.08,3.877c0.047,0.477,0.165,0.803,0.695,0.873c0.248,0.029,0.649,0.069,0.908,0.069
			c0.204,0,0.284,0.049,0.284,0.144c0,0.118-0.142,0.172-0.331,0.172c-1.18,0-2.294-0.054-2.773-0.054
			c-0.401,0-1.527,0.054-2.226,0.054c-0.245,0-0.358-0.054-0.358-0.172c0-0.095,0.068-0.144,0.275-0.144
			c0.274,0,0.484-0.04,0.643-0.069c0.356-0.07,0.46-0.373,0.522-0.896c0.08-0.736,0.08-2.138,0.08-3.854V271.886z"/>
		<path fill="#4A7628" d="M234.272,278.465c-1.748-1.524-2.211-3.506-2.211-5.229c0-1.204,0.378-3.299,2.086-4.859
			c1.284-1.169,2.959-1.881,5.607-1.881c1.1,0,1.744,0.076,2.561,0.18c0.672,0.092,1.24,0.249,1.773,0.304
			c0.2,0.014,0.269,0.106,0.269,0.21c0,0.141-0.045,0.356-0.083,0.972c-0.046,0.59-0.023,1.562-0.061,1.916
			c-0.021,0.269-0.045,0.411-0.213,0.411c-0.137,0-0.171-0.142-0.171-0.392c-0.022-0.552-0.249-1.17-0.688-1.628
			c-0.59-0.623-1.97-1.1-3.603-1.1c-1.546,0-2.562,0.39-3.333,1.1c-1.3,1.184-1.642,2.867-1.642,4.592
			c0,4.219,3.217,6.306,5.59,6.306c1.567,0,2.54-0.168,3.248-0.989c0.31-0.337,0.531-0.854,0.599-1.168
			c0.048-0.283,0.088-0.356,0.227-0.356c0.129,0,0.164,0.128,0.164,0.262c0,0.212-0.212,1.751-0.392,2.362
			c-0.091,0.3-0.146,0.384-0.455,0.515c-0.71,0.283-2.051,0.398-3.193,0.398C237.922,280.391,235.889,279.862,234.272,278.465z"/>
		<path fill="#4A7628" d="M265.392,273.455c0-3.04,2.001-6.96,7.327-6.96c4.401,0,7.163,2.575,7.163,6.629
			c0,4.061-2.84,7.266-7.349,7.266C267.445,280.391,265.392,276.584,265.392,273.455z M277.399,273.788
			c0-3.972-2.292-6.436-5.199-6.436c-2.046,0-4.358,1.133-4.358,5.548c0,3.684,2.034,6.607,5.446,6.607
			C274.526,279.508,277.399,278.909,277.399,273.788z"/>
		<g>
			<polygon fill="#FFC843" points="304.855,270.853 304.882,270.841 355.132,272.37 355.108,272.674 304.905,274.208 
				304.882,274.208 301.686,272.511 			"/>
			<polygon fill="#FFC843" points="79.675,270.853 79.648,270.841 29.412,272.37 29.424,272.674 79.625,274.208 79.648,274.208 
				82.849,272.511 			"/>
		</g>
		<g>
			<path fill="#4A7628" d="M60.277,221.539c-10.75,0-15.653,7.702-15.653,14.848c0,7.15,4.786,14.851,15.27,14.851
				c9.236,0,15.691-6.386,15.691-15.54C75.586,226.966,69.726,221.539,60.277,221.539z M61.504,249.576
				c-6.979,0-11.844-5.906-11.844-14.362c0-10.508,5.949-12.078,9.518-12.078c6.646,0,11.301,5.744,11.301,13.977
				C70.478,248.677,63.606,249.576,61.504,249.576z"/>
			<path fill="#4A7628" d="M86.922,233.503l-1.065-0.795c-3.103-2.357-4.103-3.714-4.103-5.598c0-2.428,1.888-4.054,4.66-4.054
				c2.482,0,3.627,1.095,4.26,1.921c0.83,1.026,1.031,2.244,1.031,2.593c0,0.566,0.168,0.566,0.26,0.566
				c0.153,0,0.295-0.122,0.295-1.026c0-2.114,0.07-3.276,0.117-3.969c0.016-0.279,0.024-0.475,0.024-0.624
				c0-0.146-0.057-0.249-0.425-0.33c-1.135-0.3-2.705-0.649-5.055-0.649c-5.114,0-8.703,2.919-8.703,7.101
				c0,3.245,1.623,5.838,5.611,8.958l1.744,1.368c3.157,2.431,3.797,4.234,3.797,6.211c0,2.167-1.846,4.47-5.248,4.47
				c-1.643,0-4.547-0.51-5.574-3.946c-0.198-0.704-0.345-1.501-0.345-1.987c0-0.43-0.104-0.525-0.259-0.525
				c-0.18,0-0.295,0.302-0.331,0.885l-0.014,0.087c-0.048,0.723-0.173,2.898-0.173,4.904c0,0.826,0.088,0.944,0.648,1.187
				c1.559,0.692,3.196,0.984,5.527,0.984c2.409,0,4.371-0.503,6.002-1.544c3.082-2.016,3.527-4.963,3.527-6.546
				C93.133,239.589,91.504,237.069,86.922,233.503z"/>
			<path fill="#4A7628" d="M138.518,250.614c0.413-0.019,0.708-0.028,0.845-0.028c0.595,0,1.302,0.028,2.001,0.057
				c0.707,0.028,1.443,0.052,2.056,0.052c0.483,0,0.521-0.104,0.521-0.255c0-0.108,0-0.179-0.448-0.179h-0.571
				c-1.111,0-1.651-0.43-1.651-1.307c0-0.453,0.179-1.364,0.575-2.374l2.058-5.463c0.085-0.229,0.198-0.375,0.457-0.375h8.518
				c0.252,0,0.404,0.102,0.503,0.333l3.054,8.096c0.129,0.302,0.07,0.54,0,0.675c-0.08,0.179-0.248,0.32-0.428,0.368
				c-0.445,0.055-0.445,0.132-0.445,0.227c0,0.132,0.422,0.151,0.873,0.18l0.156,0.004c3.058,0.071,5.867,0.071,7.215,0.071
				c1.256,0,1.629-0.057,1.629-0.255c0-0.123-0.01-0.179-0.363-0.179c-0.545,0-1.123-0.061-1.646-0.16
				c-0.907-0.22-2.027-0.892-3.437-4.236c-1.383-3.287-3.981-9.803-6.081-15.049c-1.604-4.039-2.988-7.523-3.377-8.431
				c-0.395-0.867-0.607-1.145-0.863-1.145c-0.293,0-0.487,0.359-0.942,1.452l-9.591,23.978c-0.703,1.751-1.432,3.217-3.275,3.497
				c0.153,0.17,0.31,0.354,0.461,0.52C137.145,250.666,137.936,250.633,138.518,250.614z M144.86,238.648l3.518-9.402
				c0.014-0.087,0.105-0.422,0.345-0.422c0.196,0,0.257,0.246,0.293,0.43l3.448,9.425c0.037,0.099,0.022,0.203-0.036,0.271
				c-0.036,0.057-0.12,0.116-0.269,0.116h-7.025c-0.123,0-0.203-0.049-0.227-0.099C144.86,238.914,144.813,238.82,144.86,238.648z"
				/>
			<path fill="#4A7628" d="M197.599,222.083c-1.265,0-2.342,0.047-3.035,0.081c-0.335,0.014-0.585,0.033-0.708,0.033
				c-0.32,0-0.783-0.028-1.359-0.043c-0.912-0.038-2.058-0.071-3.261-0.071c-0.546,0-0.873,0.033-0.873,0.213
				c0,0.087,0,0.221,0.482,0.221c0.552,0,1.482,0,2.07,0.243c1.012,0.428,1.347,1.254,1.38,3.545l0.392,17.267h-0.368l-0.033-0.035
				c-0.271-0.252-1.336-1.364-2.672-2.764c-1.878-1.97-4.229-4.427-5.743-5.939c-5.546-5.508-11.349-11.731-11.83-12.259
				c-0.133-0.137-0.238-0.259-0.347-0.377c-0.421-0.463-0.704-0.763-0.978-0.763c-0.25,0-0.383,0.39-0.383,1.168l-0.337,22.607
				c-0.045,3.25-0.167,4.505-1.274,4.847c-0.604,0.172-1.348,0.203-1.748,0.203c-0.496,0-0.496,0.127-0.496,0.179
				c0,0.203,0.16,0.255,0.718,0.255c1.406,0,2.694-0.052,3.474-0.08c0.32-0.019,0.557-0.028,0.66-0.028
				c0.246,0,0.603,0.014,1.066,0.033c0.869,0.028,2.049,0.075,3.661,0.075c0.67,0,0.757-0.127,0.757-0.255
				c0-0.052,0-0.179-0.526-0.179c-0.526,0-1.323-0.031-2.026-0.274c-0.933-0.33-1.338-1.588-1.421-4.352l-0.42-16.165h0.29
				l0.035,0.043c0.146,0.146,0.426,0.467,0.831,0.909c1.616,1.76,4.946,5.43,8.259,8.706c1.545,1.525,3.195,3.2,4.816,4.824
				c2.547,2.572,4.971,4.993,6.445,6.395c0.389,0.398,0.84,0.819,1.22,0.819c0.165,0,0.366-0.127,0.366-1.069l0.425-24.099
				c0.032-1.991,0.266-2.999,1.498-3.351c0.476-0.127,0.796-0.127,1.184-0.127c0.211,0,0.557-0.023,0.557-0.221
				C198.345,222.141,198.155,222.083,197.599,222.083z"/>
			<path fill="#4A7628" d="M225.355,243.839c-0.189,0-0.262,0.028-0.384,0.665c-0.154,0.727-0.664,1.846-1.325,2.584
				c-1.571,1.817-3.792,2.178-7.07,2.178c-4.899,0-12.148-4.363-12.148-13.72c0-4.583,1.131-7.753,3.554-9.98
				c1.794-1.636,4.097-2.397,7.253-2.397c3.331,0,6.482,0.972,7.841,2.402c0.911,0.954,1.477,2.294,1.527,3.599
				c0,0.665,0.129,0.722,0.26,0.722c0.186,0,0.278-0.116,0.327-0.763c0.05-0.382,0.05-1.104,0.062-1.873
				c0.011-0.795,0.022-1.624,0.065-2.256c0.038-0.824,0.107-1.314,0.145-1.638c0.024-0.203,0.035-0.342,0.035-0.453
				c0-0.196-0.157-0.312-0.459-0.342c-0.607-0.061-1.232-0.184-1.881-0.305c-0.626-0.122-1.252-0.249-1.947-0.339
				c-1.713-0.222-3.12-0.384-5.52-0.384c-5.18,0-8.983,1.285-11.975,4.023c-4.001,3.655-4.427,8.477-4.427,10.372
				c0,4.675,1.583,8.437,4.685,11.174c3.237,2.813,7.382,4.13,13.017,4.13c2.153,0,5.225-0.231,6.828-0.873
				c0.603-0.241,0.733-0.401,0.927-1.034c0.371-1.274,0.835-4.606,0.835-5.035C225.581,243.839,225.412,243.839,225.355,243.839z"/>
			<path fill="#4A7628" d="M260.685,250.26c-0.579,0-1.419-0.085-1.959-0.156c-1.276-0.175-1.489-1.17-1.603-2.164
				c-0.184-1.654-0.184-4.686-0.184-8.196v-6.716c0-5.825,0-6.877,0.08-8.104c0.061-1.249,0.344-2.067,1.515-2.286
				c0.474-0.083,0.826-0.121,1.121-0.121c0.566,0,0.566-0.122,0.566-0.221c0-0.099-0.055-0.213-0.673-0.213
				c-0.823,0-1.959,0.033-2.949,0.062c-0.783,0.024-1.468,0.052-1.86,0.052c-0.434,0-1.109-0.028-1.873-0.052
				c-1.076-0.028-2.424-0.062-3.63-0.062c-0.632,0-0.682,0.114-0.682,0.213c0,0.087,0,0.221,0.53,0.221
				c0.51,0,1.181,0.038,1.511,0.121c1.374,0.295,1.666,0.997,1.734,2.286c0.073,1.227,0.073,2.279,0.073,8.104v0.8
				c0,0.267-0.165,0.392-0.34,0.392h-14.589c-0.179,0-0.345-0.126-0.345-0.392v-0.8c0-5.825,0-6.877,0.073-8.104
				c0.069-1.283,0.343-2.067,1.511-2.286c0.493-0.083,0.826-0.121,1.136-0.121c0.566,0,0.566-0.134,0.566-0.221
				c0-0.099-0.063-0.213-0.685-0.213c-0.841,0-1.962,0.033-2.943,0.062c-0.79,0.024-1.475,0.052-1.881,0.052
				c-0.422,0-1.081-0.028-1.858-0.052c-1.079-0.028-2.423-0.062-3.628-0.062c-0.63,0-0.687,0.114-0.687,0.213
				c0,0.087,0,0.221,0.518,0.221c0.528,0,1.204,0.038,1.534,0.121c1.359,0.295,1.652,0.997,1.723,2.286
				c0.088,1.227,0.088,2.279,0.088,8.104v6.716c0,3.509,0,6.542-0.191,8.156c-0.153,1.102-0.358,2.029-1.22,2.2
				c-0.455,0.108-0.916,0.16-1.394,0.16c-0.482,0-0.482,0.127-0.482,0.179c0,0.068,0,0.255,0.638,0.255
				c0.873,0,2.008-0.028,3.016-0.061c0.768-0.023,1.413-0.047,1.794-0.047c0.424,0,1.075,0.024,1.833,0.038
				c1.168,0.036,2.627,0.071,4.132,0.071c0.189,0,0.641-0.023,0.641-0.255c0-0.163-0.348-0.179-0.484-0.179
				c-0.595,0-1.434-0.085-1.973-0.156c-1.264-0.175-1.489-1.17-1.601-2.164c-0.175-1.654-0.175-4.686-0.175-8.196v-3.358
				c0-0.214,0.118-0.342,0.345-0.342h14.589c0.175,0,0.34,0.118,0.34,0.342v3.358c0,3.509,0,6.546-0.189,8.156
				c-0.139,1.102-0.339,2.029-1.2,2.2c-0.296,0.073-0.771,0.16-1.395,0.16c-0.497,0-0.497,0.132-0.497,0.179
				c0,0.068,0,0.255,0.683,0.255c0.839,0,1.972-0.028,2.951-0.061c0.781-0.023,1.444-0.047,1.819-0.047
				c0.439,0,1.091,0.024,1.821,0.038c1.181,0.036,2.648,0.071,4.145,0.071c0.189,0,0.64-0.023,0.64-0.255
				C261.18,250.277,260.837,250.26,260.685,250.26z"/>
			<path fill="#4A7628" d="M281,245.14c-0.165,0-0.227,0.042-0.307,0.472c-0.272,1.628-0.782,2.449-1.787,2.917
				c-1.012,0.467-2.654,0.467-3.632,0.467c-3.877,0-4.625-0.523-4.705-3.328c-0.035-0.783-0.023-2.761-0.012-4.342
				c0-0.64,0.012-1.201,0.012-1.581v-3.016c0-0.134,0-0.497,0.347-0.497c0.897,0,4.699,0.03,5.44,0.115
				c1.291,0.142,1.997,0.643,2.247,1.581c0.068,0.368,0.091,0.727,0.118,1.044c0.009,0.122,0.023,0.236,0.033,0.344
				c0,0.179,0.051,0.236,0.217,0.236c0.198,0,0.236-0.203,0.236-0.609c0-0.271,0.07-1.794,0.139-2.567
				c0.087-1.371,0.198-2.081,0.258-2.464c0.035-0.151,0.047-0.252,0.047-0.307c0-0.17-0.07-0.179-0.14-0.179
				c-0.116,0-0.267,0.158-0.484,0.396l-0.047,0.047c-0.368,0.42-0.979,0.542-1.911,0.621c-0.769,0.064-4.162,0.073-6.117,0.073
				c-0.382,0-0.382-0.349-0.382-0.538v-9.668c0-0.328,0.133-0.503,0.382-0.503c0.741,0,4.771,0.078,5.439,0.156
				c1.86,0.215,2.353,0.661,2.65,1.459c0.236,0.543,0.248,1.329,0.248,1.418c0,0.404,0.12,0.404,0.222,0.404
				c0.14,0,0.2-0.085,0.26-0.316c0.045-0.278,0.097-1.038,0.135-1.657c0.018-0.382,0.042-0.712,0.054-0.854
				c0.068-1.194,0.191-1.784,0.262-2.138c0.023-0.156,0.048-0.258,0.048-0.331c0-0.217-0.059-0.217-0.118-0.217
				c-0.099,0-0.215,0.033-0.335,0.076c-0.08,0.028-0.177,0.052-0.26,0.071c-0.335,0.09-1.088,0.17-1.638,0.222
				c-0.663,0.043-6.899,0.052-9.552,0.052c-0.468,0-1.148-0.028-1.94-0.052c-1.125-0.028-2.402-0.062-3.57-0.062
				c-0.658,0-0.706,0.114-0.706,0.213c0,0.087,0,0.221,0.524,0.221c0.514,0,1.189,0.038,1.515,0.127
				c1.359,0.289,1.656,0.991,1.73,2.28c0.082,1.227,0.082,2.279,0.082,8.104v6.716c0,3.509,0,6.546-0.202,8.156
				c-0.137,1.102-0.34,2.029-1.203,2.2c-0.463,0.108-0.921,0.16-1.393,0.16c-0.484,0-0.484,0.127-0.484,0.179
				c0,0.068,0,0.255,0.635,0.255c0.871,0,2.007-0.028,3.017-0.061c0.765-0.023,1.416-0.047,1.793-0.047
				c0.874,0,1.772,0.033,2.907,0.073c1.85,0.075,4.131,0.153,7.675,0.153c1.441,0,1.699,0,1.949-0.904
				c0.188-0.748,0.486-3.335,0.486-4.203C281.18,245.267,281.156,245.14,281,245.14z"/>
			<path fill="#4A7628" d="M311.651,250.26c-0.282,0-0.639-0.038-1.09-0.12l-0.044-0.012c-0.601-0.118-2.186-0.43-4.3-2.622
				c-1.959-2.065-4.192-4.878-7.016-8.441l-1.349-1.704l0.085-0.078c3.512-2.839,5.006-5.367,5.006-8.456
				c0-2.499-1.521-4.436-2.546-5.128c-2.081-1.428-4.691-1.617-6.958-1.617c-0.584,0-1.538,0.023-2.566,0.052
				c-1.064,0.024-2.15,0.062-2.823,0.062c-0.307,0-0.849-0.019-1.533-0.043c-1.091-0.038-2.454-0.071-3.685-0.071
				c-0.677,0-0.735,0.105-0.735,0.213c0,0.087,0,0.221,0.533,0.221c0.517,0,1.192,0.038,1.523,0.121
				c1.358,0.295,1.653,0.997,1.735,2.286c0.07,1.227,0.07,2.279,0.07,8.104v6.716c0,3.509,0,6.546-0.189,8.156
				c-0.153,1.102-0.353,2.029-1.206,2.2c-0.304,0.073-0.776,0.16-1.403,0.16c-0.487,0-0.487,0.132-0.487,0.179
				c0,0.068,0,0.255,0.653,0.255c0.899,0,2.113-0.035,3.093-0.071c0.674-0.014,1.255-0.038,1.548-0.038
				c0.2,0,0.653,0.014,1.241,0.033c1.168,0.028,2.916,0.075,4.38,0.075c0.635,0,0.635-0.187,0.635-0.255
				c0-0.123-0.1-0.179-0.325-0.179c-0.482,0-1.322-0.085-1.893-0.156c-1.275-0.175-1.477-1.185-1.595-2.211
				c-0.184-1.607-0.184-4.656-0.184-8.184v-0.531c0-0.283,0.15-0.43,0.424-0.43l3.333,0.078c0.254,0,0.537,0.036,0.781,0.309
				c0.28,0.336,0.979,1.338,1.8,2.507c0.618,0.875,1.312,1.873,1.976,2.774c2.225,3.035,3.624,4.739,5.199,5.569
				c0.976,0.541,1.955,0.708,4.025,0.708h3.615c0.565,0,0.599-0.118,0.599-0.255C311.979,250.291,311.805,250.26,311.651,250.26z
				 M296.362,236.564c-0.68,0.505-1.189,0.673-2.773,0.673c-1.107,0-2.204-0.146-2.929-0.39c-0.377-0.156-0.434-0.384-0.434-0.802
				v-11.606c0-0.323,0.08-0.557,0.434-0.652c0.358-0.111,0.993-0.164,2.053-0.164c2.209,0,5.954,1.505,5.954,7.115
				C298.668,234.331,297.24,235.934,296.362,236.564z"/>
			<path fill="#4A7628" d="M324.458,221.539c-10.738,0-15.651,7.702-15.651,14.848c0,7.15,4.782,14.851,15.27,14.851
				c9.236,0,15.688-6.386,15.688-15.54C339.765,226.966,333.894,221.539,324.458,221.539z M325.685,249.576
				c-6.973,0-11.848-5.906-11.848-14.362c0-10.508,5.968-12.078,9.521-12.078c6.663,0,11.311,5.744,11.311,13.977
				C334.67,248.677,327.786,249.576,325.685,249.576z"/>
			<path fill="#4A7628" d="M47.791,248.483c-0.283,0-0.39,0.163-0.448,0.673c-0.108,1.017-0.761,2.515-1.393,3.197
				c-1.384,1.499-3.606,1.499-6.183,1.499c-4.25,0-5.524-0.418-6.387-1.175c-1.132-0.977-1.132-4.424-1.132-11.299v-9.173
				c0-7.95,0-9.375,0.103-11.056c0.095-1.732,0.458-2.794,2.021-3.082c0.67-0.111,1.523-0.161,2.066-0.161
				c0.741,0,0.803-0.158,0.803-0.347c0-0.215-0.166-0.342-0.973-0.342c-1.144,0-2.829,0.047-4.318,0.094
				c-1.18,0.028-2.209,0.061-2.764,0.061c-0.602,0-1.561-0.033-2.646-0.061c-1.451-0.047-3.104-0.094-4.486-0.094
				c-0.863,0-1.029,0.127-1.029,0.342c0,0.175,0.059,0.347,0.753,0.347c0.728,0,1.338,0.062,1.753,0.161
				c1.842,0.396,2.232,1.347,2.336,3.082c0.109,1.68,0.109,3.105,0.109,11.056v9.173c0,4.783,0,8.92-0.262,11.114
				c-0.213,1.495-0.475,2.747-1.622,2.969c-0.608,0.144-1.241,0.212-1.888,0.212c-0.719,0-0.719,0.203-0.719,0.298
				c0,0.099,0,0.398,0.922,0.398c1.191,0,2.742-0.052,4.111-0.097c1.047-0.031,1.94-0.059,2.453-0.059
				c1.822,0,3.475,0.059,5.387,0.123c2.578,0.087,5.507,0.188,9.791,0.188c2.696,0,2.871-0.253,3.158-1.312
				c0.416-1.489,0.775-5.385,0.775-5.965C48.084,248.547,47.998,248.483,47.791,248.483z"/>
			<path fill="#4A7628" d="M144.539,255.683c-0.429,0-0.887-0.052-1.49-0.166l-0.057-0.009c-0.803-0.16-2.965-0.583-5.839-3.566
				c-0.308-0.325-0.623-0.667-0.939-1.017c-0.038-0.04-0.075-0.076-0.11-0.116c-0.033-0.036-0.071-0.083-0.102-0.12
				c-0.145-0.158-0.3-0.33-0.439-0.491c-0.023-0.034-0.057-0.076-0.094-0.111c-0.033-0.041-0.06-0.078-0.105-0.111
				c-2.221-2.546-4.724-5.706-7.74-9.494c-0.577-0.731-1.171-1.489-1.793-2.254l-0.071-0.097l0.095-0.075
				c4.795-3.894,6.836-7.355,6.836-11.58c0-3.703-2.291-6.22-3.495-7.037c-2.859-1.956-6.414-2.223-9.52-2.223
				c-0.793,0-2.113,0.033-3.521,0.075c-1.43,0.043-2.929,0.08-3.823,0.08c-0.427,0-1.16-0.023-2.091-0.052
				c-1.505-0.047-3.354-0.104-5.045-0.104c-0.863,0-1.028,0.132-1.028,0.349c0,0.175,0.059,0.345,0.752,0.345
				c0.69,0,1.621,0.049,2.074,0.163c1.839,0.389,2.229,1.343,2.337,3.075c0.092,1.68,0.092,3.105,0.092,11.062v9.166
				c0,4.786,0,8.92-0.257,11.114c-0.203,1.495-0.463,2.747-1.607,2.969c-0.637,0.149-1.268,0.222-1.902,0.222
				c-0.722,0-0.722,0.207-0.722,0.288c0,0.099,0,0.398,0.937,0.398c1.227,0,2.889-0.052,4.225-0.097
				c0.922-0.031,1.727-0.059,2.126-0.059c0.276,0,0.861,0.024,1.692,0.045c1.576,0.04,3.964,0.111,5.977,0.111
				c0.908,0,0.908-0.299,0.908-0.398c0-0.193-0.167-0.288-0.5-0.288c-0.655,0-1.816-0.113-2.571-0.217
				c-1.699-0.227-1.985-1.541-2.129-2.974c-0.257-2.194-0.257-6.348-0.257-11.159v-0.729c0-0.359,0.177-0.543,0.531-0.543
				l4.535,0.102c0.415,0,0.746,0.068,1.026,0.413c0.401,0.453,1.38,1.859,2.513,3.476c0.83,1.18,1.775,2.518,2.65,3.721
				c3.023,4.153,4.963,6.473,7.11,7.625c1.368,0.739,2.709,0.972,5.518,0.972h4.946c0.725,0,0.863-0.151,0.863-0.398
				C145.035,255.728,144.766,255.683,144.539,255.683z M123.657,236.993c-0.946,0.689-1.618,0.911-3.767,0.911
				c-1.512,0-3.018-0.194-4.009-0.529c-0.468-0.198-0.54-0.493-0.54-1.052v-15.839c0-0.415,0.097-0.715,0.554-0.847
				c0.487-0.144,1.348-0.21,2.79-0.21c3.011,0,8.104,2.032,8.104,9.652C126.789,233.977,124.816,236.144,123.657,236.993z"/>
			<path fill="#4A7628" d="M355.014,232.826l-1.458-1.09c-4.213-3.202-5.571-5.053-5.571-7.603c0-3.285,2.539-5.494,6.317-5.494
				c3.344,0,4.9,1.492,5.778,2.606c1.136,1.395,1.381,3.048,1.381,3.516c0,0.811,0.283,0.811,0.401,0.811
				c0.274,0,0.451-0.245,0.451-1.439c0-2.888,0.105-4.479,0.165-5.42c0.025-0.371,0.05-0.638,0.05-0.833
				c0-0.227-0.109-0.39-0.63-0.505c-1.546-0.41-3.708-0.887-6.908-0.887c-7.017,0-11.922,4.004-11.922,9.722
				c0,4.456,2.225,8.005,7.667,12.262l2.399,1.878c4.274,3.297,5.147,5.753,5.147,8.434c0,2.933-2.48,6.06-7.11,6.06
				c-2.223,0-6.178-0.694-7.568-5.352c-0.271-0.958-0.474-2.041-0.474-2.69c0-0.547-0.108-0.765-0.392-0.765
				c-0.293,0-0.443,0.406-0.495,1.244c-0.081,1.14-0.274,4.089-0.274,6.812c0,1.098,0.123,1.317,0.91,1.664
				c2.139,0.942,4.395,1.342,7.576,1.342c3.304,0,5.984-0.693,8.219-2.114c4.203-2.753,4.843-6.798,4.843-8.967
				C363.517,241.142,361.284,237.687,355.014,232.826z"/>
		</g>
		<path fill="#4A7628" d="M207.785,169.551c2.354,0.904,4.147,2.639,5.427,4.335c0.089,0.104,0.133,0.165,0.133,0.165
			c1.081,1.293,1.9,2.827,2.49,4.54c-3.544-5.215-8.208-8.372-12.566-7.99c0,0-0.309,0.035-0.797,0.135
			c-0.206,0.035-0.417,0.092-0.635,0.144c-1.204,0.295-2.94,0.873-4.185,1.914c0.323-3.679,0.776-6.971,0.254-10.371
			c0.364-1.926,1.094-3.856,2.217-5.335c0,0,0.606-0.852-0.188-0.329c-1.062,0.85-1.959,2.136-2.511,3.448
			c-0.335-1.022-0.735-1.984-1.208-3.101c-1.015-2.126-2.194-4.137-3.27-6.289c0.009,0.005,0.009,0.005,0.023,0.005
			c-0.023-0.411,0-0.816,0.057-1.192c0.117-0.701,0.368-1.338,0.748-1.871c0.507-0.727,1.238-1.218,2.103-1.397
			c0.908-0.18,1.841,0.144,2.751-0.055c0.697-0.163,1.352-0.483,1.933-0.917c1.645-1.256,2.698-3.335,4.326-4.602
			c-2.447-1.281-4.763-1.794-6.825-1.043c-0.047,0.014-0.095,0.031-0.133,0.047c-0.48,0.217-0.943,0.491-1.344,0.802
			c-0.024,0.015-0.062,0.04-0.085,0.064c-0.246,0.191-0.472,0.398-0.699,0.609c-0.59,0.588-1.095,1.249-1.507,1.957
			c-0.029,0.038-0.05,0.07-0.069,0.108l0.005-0.004c2.842-2.568,6.714-2.346,8.288-2.122c0.132,0.016,0.252,0.033,0.349,0.047
			c0.09,0.021,0.17,0.038,0.251,0.054c0.067,0.014,0.118,0.026,0.118,0.026c-4.691,0.239-8.518,1.985-9.961,4.954v-0.036
			c0,0-0.107,0.208-0.225,0.561c-0.057,0.146-0.104,0.295-0.151,0.456c-0.198,0.668-0.425,1.562-0.448,2.478
			c-0.188-0.411-0.392-0.816-0.571-1.244l-0.281-0.767c-1.238-3.344-1.961-7.282-1.413-12.646c0.024-0.324,0.055-1.395-0.521-0.026
			c-3.727,10.768,2.315,14.768,3.873,25.217c0.366,2.662,0.297,5.22-0.095,7.684c-0.803-3.32-2.87-7.481-4.618-9.378
			c-4.043-6.074-13.656-7.524-17.518-11.649c0.187,13.792,7.217,15.844,11.998,15.543c-5.277-1.609-8.031-5.822-8.643-6.868
			c-1.004-1.604-1.738-3.448-2.229-5.503c0.21,0.486,0.436,0.958,0.668,1.416c3.419,6.426,9.038,8.607,12.37,9.35l-0.002,0.014
			c0,0,3.987,0.571,5.932,3.592c0.848,1.38,1.509,3.117,1.782,5.248c-0.505,3.077-1.241,6.214-1.761,9.367
			c-0.33,2.357-0.46,4.831-0.386,7.252c-3.168-0.732-6.443-1.359-9.771-1.902c-10.586-1.699-20.752-1.246-30.881,2.389
			c-8.538,3.058-16.795,6.808-24.467,11.65c-2.143,1.35-4.248,2.747-6.287,4.229c3.177,0.22,6.364,0.395,9.555,0.532
			c13.186,0.566,26.4,0.443,39.596-0.114c3.484-2.61,7.132-4.946,10.912-6.955c5.398-2.865,11.375-5.803,17.137-7.412l1.434-0.413
			c0.009-0.054,0.009-0.106,0-0.165c-0.05-0.132-0.158-0.446-0.158-0.446c-0.766-3.778-0.871-8.206-0.633-12.076
			c-0.037-0.703,0.081-1.388,0.128-2.083c1.321-0.982,2.869-1.461,4.285-1.364c1.194,0.076,2.259,0.578,3.072,1.446
			c0.84,0.904,1.109,2.205,1.974,3.106c0.674,0.691,1.496,1.222,2.397,1.579c2.585,1.019,5.694,0.764,8.283,1.755
			C217.219,173.999,214.674,169.787,207.785,169.551z"/>
		<path fill="#FFC843" d="M193.52,127.027c31.786,0,60.257,14.209,79.411,36.617c-0.105-0.169-0.211-0.339-0.32-0.499
			c-4.543-6.788-9.919-12.949-15.993-18.364c-16.994-15.165-39.399-24.392-63.98-24.392c-18.011,0-34.88,4.974-49.292,13.602
			c-6.131,3.667-11.799,8.004-16.939,12.885c-7.33,6.983-13.588,15.105-18.449,24.089c0.176-0.024,0.336-0.055,0.486-0.085
			C127.381,144.336,158.428,127.027,193.52,127.027z"/>
	</g>
	<g>
		<path fill="#4A7628" d="M372.719,218.294h1.386c0.502,0,0.908,0.114,1.212,0.348c0.307,0.232,0.46,0.583,0.46,1.062
			c0,0.356-0.097,0.669-0.291,0.928c-0.191,0.26-0.495,0.46-0.896,0.6c0.273,0.069,0.479,0.189,0.611,0.364
			c0.136,0.179,0.236,0.437,0.307,0.778l0.347,1.732h-0.606l-0.245-1.4c-0.075-0.442-0.191-0.765-0.379-0.961
			c-0.166-0.199-0.414-0.295-0.737-0.295h-0.625v2.656h-0.542V218.294z M373.261,218.801v2.184h0.575
			c0.411,0,0.75-0.114,0.991-0.333c0.253-0.216,0.377-0.52,0.377-0.886c0-0.322-0.088-0.566-0.266-0.725
			c-0.182-0.161-0.45-0.24-0.811-0.24H373.261z"/>
		<path fill="#4A7628" d="M369.585,221.2c0,2.595,2.11,4.715,4.698,4.715c2.583,0,4.691-2.12,4.691-4.715
			c0-2.595-2.108-4.713-4.691-4.713C371.695,216.486,369.585,218.605,369.585,221.2z M370.191,221.2
			c0-2.269,1.836-4.116,4.092-4.116c2.256,0,4.092,1.847,4.092,4.116c0,2.269-1.836,4.114-4.092,4.114
			C372.027,225.314,370.191,223.468,370.191,221.2z"/>
	</g>
</g>
</svg>
